<?xml version="1.0" encoding="utf-8"?>
<!-- Generator: Adobe Illustrator 27.2.0, SVG Export Plug-In . SVG Version: 6.00 Build 0)  -->
<svg version="1.1" id="Layer_1" xmlns="http://www.w3.org/2000/svg" xmlns:xlink="http://www.w3.org/1999/xlink" x="0px" y="0px"
	 viewBox="0 0 631 202" style="enable-background:new 0 0 631 202;" xml:space="preserve">
<style type="text/css">
	.st0{fill:#FFCF00;}
	.st1{fill:#183EFF;}
	.st2{fill:#292929;}
	.st3{fill:#00CF00;}
	.st4{fill:#FF0000;}
</style>
<g>
	<g>
		<path d="M325.2,165c0,0.5,0,0.9-0.1,1.3c-0.1,0.4-0.2,0.8-0.3,1.2c-0.2,0.4-0.4,0.7-0.6,1c-0.2,0.3-0.6,0.5-0.9,0.6
			c-0.4,0.2-0.8,0.2-1.3,0.2c-0.5,0-0.9-0.1-1.3-0.2c-0.4-0.2-0.7-0.4-0.9-0.6c-0.2-0.3-0.4-0.6-0.6-1c-0.2-0.4-0.3-0.8-0.3-1.2
			c-0.1-0.4-0.1-0.8-0.1-1.3v-6.1h-1.9v6.1c0,0.6,0.1,1.2,0.2,1.8c0.1,0.6,0.3,1.1,0.6,1.6c0.3,0.5,0.6,1,1,1.3
			c0.4,0.4,0.9,0.7,1.5,0.9c0.6,0.2,1.3,0.3,2,0.3c0.9,0,1.7-0.2,2.4-0.5c0.7-0.3,1.2-0.7,1.6-1.3c0.4-0.6,0.7-1.2,0.9-1.9
			c0.2-0.7,0.3-1.5,0.3-2.3v-6.1h-1.9V165z M341.4,167.6l-6.8-8.7H333v12h1.9v-8.5l6.7,8.5h1.7v-12h-1.9V167.6z M349.3,170.9h1.9
			v-12h-1.9V170.9z M360.8,158.9l-4.7,12h2l1.3-3.3h4.6l1.3,3.3h2l-4.7-12H360.8z M359.7,166.2l2-5.2l1.9,5.2H359.7z M359.7,157.3
			c0-0.1,0-0.2,0.1-0.3c0-0.1,0.1-0.2,0.3-0.3c0.1-0.1,0.3-0.1,0.4-0.1c0.2,0,0.4,0.1,0.6,0.2c0.2,0.1,0.5,0.2,0.7,0.4
			c0.3,0.1,0.5,0.2,0.8,0.2c0.3,0,0.5-0.1,0.8-0.2c0.2-0.1,0.4-0.3,0.6-0.4c0.1-0.2,0.3-0.3,0.3-0.5c0.1-0.2,0.2-0.4,0.2-0.5
			c0-0.1,0.1-0.2,0.1-0.3h-1.1c0,0,0,0.1,0,0.1c0,0,0,0.1-0.1,0.2c0,0.1-0.1,0.2-0.2,0.2c-0.1,0.1-0.2,0.1-0.3,0.2
			c-0.1,0.1-0.3,0.1-0.4,0.1c-0.2,0-0.5-0.1-0.7-0.2c-0.2-0.1-0.5-0.2-0.7-0.4c-0.3-0.1-0.5-0.2-0.8-0.2c-0.3,0-0.5,0.1-0.7,0.2
			c-0.2,0.1-0.4,0.3-0.5,0.4c-0.1,0.2-0.2,0.3-0.3,0.5c-0.1,0.2-0.2,0.4-0.2,0.5c0,0.1,0,0.3,0,0.3h1
			C359.7,157.4,359.7,157.4,359.7,157.3 M380.8,160.7c-0.5-0.6-1.1-1-1.8-1.4c-0.7-0.4-1.5-0.5-2.3-0.5c-0.8,0-1.6,0.2-2.3,0.5
			c-0.7,0.3-1.3,0.8-1.8,1.3c-0.5,0.6-0.9,1.2-1.2,1.9c-0.3,0.7-0.4,1.5-0.4,2.3c0,0.6,0.1,1.2,0.3,1.8c0.2,0.6,0.4,1.1,0.8,1.7
			c0.3,0.5,0.7,1,1.2,1.4c0.5,0.4,1,0.7,1.6,0.9c0.6,0.2,1.2,0.3,1.9,0.3c0.8,0,1.6-0.2,2.3-0.5c0.7-0.3,1.3-0.8,1.8-1.3
			c0.5-0.6,0.9-1.2,1.2-1.9c0.3-0.7,0.4-1.5,0.4-2.3c0-0.8-0.1-1.5-0.4-2.2C381.6,162,381.3,161.3,380.8,160.7 M380.2,166.5
			c-0.2,0.5-0.4,1-0.7,1.4c-0.3,0.4-0.7,0.7-1.2,1c-0.5,0.3-1,0.4-1.6,0.4c-0.8,0-1.4-0.2-2-0.6c-0.6-0.4-1-1-1.3-1.6
			c-0.3-0.7-0.5-1.4-0.5-2.1c0-0.5,0.1-1.1,0.3-1.6c0.2-0.5,0.4-1,0.7-1.4c0.3-0.4,0.7-0.7,1.2-1c0.5-0.2,1-0.4,1.6-0.4
			c0.6,0,1.1,0.1,1.6,0.4c0.5,0.2,0.9,0.6,1.2,1c0.3,0.4,0.6,0.9,0.8,1.4c0.2,0.5,0.3,1.1,0.3,1.6
			C380.4,165.4,380.3,166,380.2,166.5 M397.1,165.6h5.3V164h-5.3v-3.4h6.2v-1.7h-8.1v12h8.2v-1.7h-6.3V165.6z M424.6,165
			c0.4-0.7,0.6-1.4,0.6-2.2c0-0.5-0.1-1-0.3-1.4c-0.2-0.5-0.4-0.9-0.8-1.3c-0.3-0.4-0.7-0.7-1.2-0.9c-0.5-0.2-1-0.3-1.5-0.3h-5.2v12
			h1.9v-4.2h2.8l2.6,4.2h2.1l-2.8-4.6C423.6,166.1,424.1,165.7,424.6,165 M421.5,165.1h-3.3v-4.5h3.2c0.5,0,1,0.2,1.3,0.7
			c0.4,0.4,0.6,1,0.6,1.6c0,0.6-0.2,1.1-0.5,1.6C422.4,164.8,422,165.1,421.5,165.1 M432.7,165.6h5.3V164h-5.3v-3.4h6.2v-1.7h-8.1
			v12h8.2v-1.7h-6.3V165.6z M451.5,168.4c-0.4,0.3-0.7,0.5-1.1,0.7c-0.4,0.1-0.8,0.2-1.2,0.2c-0.7,0-1.4-0.2-2-0.6
			c-0.6-0.4-1.1-0.9-1.4-1.6c-0.3-0.7-0.5-1.4-0.5-2.2c0-0.4,0.1-0.8,0.2-1.3c0.1-0.4,0.3-0.8,0.5-1.2c0.2-0.4,0.5-0.7,0.8-1
			c0.3-0.3,0.7-0.5,1.1-0.7c0.4-0.2,0.9-0.3,1.4-0.3c0.3,0,0.6,0,0.9,0.1c0.3,0.1,0.6,0.2,0.9,0.3c0.3,0.1,0.5,0.3,0.8,0.6
			c0.2,0.3,0.4,0.6,0.6,0.9l1.5-1c-0.4-0.8-1-1.4-1.8-1.9c-0.8-0.5-1.7-0.7-2.8-0.7c-0.7,0-1.4,0.1-2,0.3c-0.6,0.2-1.2,0.5-1.6,0.9
			c-0.5,0.4-0.8,0.8-1.2,1.3c-0.3,0.5-0.6,1-0.7,1.6c-0.2,0.6-0.2,1.2-0.2,1.7c0,0.8,0.1,1.5,0.4,2.2c0.3,0.7,0.7,1.4,1.2,2
			c0.5,0.6,1.1,1.1,1.8,1.4c0.7,0.4,1.5,0.5,2.3,0.5c0.6,0,1.3-0.1,1.9-0.3c0.6-0.2,1.2-0.5,1.8-1c0.5-0.4,0.9-0.9,1.2-1.5l-1.6-0.9
			C452.1,167.8,451.8,168.1,451.5,168.4 M468,160.7c-0.5-0.6-1.1-1-1.8-1.4c-0.7-0.4-1.5-0.5-2.3-0.5c-0.8,0-1.6,0.2-2.3,0.5
			c-0.7,0.3-1.3,0.8-1.8,1.3c-0.5,0.6-0.9,1.2-1.2,1.9c-0.3,0.7-0.4,1.5-0.4,2.3c0,0.6,0.1,1.2,0.3,1.8c0.2,0.6,0.4,1.1,0.8,1.7
			c0.3,0.5,0.7,1,1.2,1.4c0.5,0.4,1,0.7,1.6,0.9c0.6,0.2,1.2,0.3,1.9,0.3c0.8,0,1.6-0.2,2.3-0.5c0.7-0.3,1.3-0.8,1.8-1.3
			c0.5-0.6,0.9-1.2,1.2-1.9c0.3-0.7,0.4-1.5,0.4-2.3c0-0.8-0.1-1.5-0.4-2.2C468.9,162,468.5,161.3,468,160.7 M467.4,166.5
			c-0.2,0.5-0.4,1-0.7,1.4c-0.3,0.4-0.7,0.7-1.2,1c-0.5,0.3-1,0.4-1.6,0.4c-0.8,0-1.4-0.2-2-0.6c-0.6-0.4-1-1-1.3-1.6
			c-0.3-0.7-0.5-1.4-0.5-2.1c0-0.5,0.1-1.1,0.3-1.6c0.2-0.5,0.4-1,0.7-1.4c0.3-0.4,0.7-0.7,1.2-1c0.5-0.2,1-0.4,1.6-0.4
			c0.6,0,1.1,0.1,1.6,0.4c0.5,0.2,0.9,0.6,1.2,1c0.3,0.4,0.6,0.9,0.8,1.4c0.2,0.5,0.3,1.1,0.3,1.6
			C467.7,165.4,467.6,166,467.4,166.5 M483.3,167.6l-6.8-8.7h-1.5v12h1.9v-8.5l6.7,8.5h1.7v-12h-1.9V167.6z M499,165.6
			c-0.2-0.2-0.5-0.4-0.8-0.6c-0.3-0.2-0.7-0.3-1.1-0.5c-0.4-0.1-0.8-0.2-1.4-0.4c-0.3-0.1-0.6-0.1-0.8-0.2c-0.2-0.1-0.4-0.1-0.7-0.2
			s-0.4-0.1-0.6-0.2c-0.1-0.1-0.3-0.1-0.4-0.2c-0.1-0.1-0.2-0.2-0.3-0.3c-0.1-0.1-0.1-0.2-0.2-0.3c0-0.1-0.1-0.3-0.1-0.4
			c0-0.5,0.2-0.9,0.6-1.2c0.4-0.3,1-0.4,1.8-0.4c0.7,0,1.3,0.1,1.9,0.4c0.6,0.3,1.1,0.5,1.3,0.8l0.9-1.5c-1.2-0.9-2.6-1.4-4-1.4
			c-0.6,0-1.2,0.1-1.7,0.2c-0.5,0.2-1,0.4-1.4,0.7c-0.4,0.3-0.7,0.7-0.9,1.1c-0.2,0.5-0.3,1-0.3,1.6c0,0.5,0.1,0.9,0.2,1.2
			c0.1,0.3,0.4,0.6,0.7,0.9c0.3,0.2,0.7,0.5,1.1,0.6c0.4,0.2,0.9,0.3,1.6,0.5c0.4,0.1,0.7,0.2,1,0.3c0.2,0.1,0.5,0.1,0.8,0.2
			c0.3,0.1,0.5,0.2,0.7,0.3c0.2,0.1,0.3,0.2,0.5,0.3c0.1,0.1,0.3,0.3,0.3,0.4c0.1,0.2,0.1,0.3,0.1,0.5c0,0.5-0.2,0.9-0.6,1.1
			c-0.4,0.3-1,0.4-1.7,0.4c-0.8,0-1.6-0.2-2.4-0.5c-0.8-0.3-1.3-0.7-1.7-1l-0.9,1.6c0.7,0.5,1.4,0.9,2.3,1.2
			c0.9,0.3,1.7,0.4,2.6,0.4c0.5,0,1,0,1.4-0.1c0.4-0.1,0.8-0.2,1.2-0.4c0.4-0.2,0.7-0.4,1-0.7c0.3-0.3,0.5-0.6,0.6-1
			c0.2-0.4,0.2-0.8,0.2-1.3c0-0.4-0.1-0.8-0.2-1.1C499.4,166.1,499.2,165.8,499,165.6 M503.8,160.6h4v10.3h1.9v-10.3h4v-1.7h-9.9
			V160.6z M527,165c0.4-0.7,0.6-1.4,0.6-2.2c0-0.5-0.1-1-0.3-1.4c-0.2-0.5-0.4-0.9-0.8-1.3c-0.3-0.4-0.7-0.7-1.2-0.9
			c-0.5-0.2-1-0.3-1.5-0.3h-5.2v12h1.9v-4.2h2.8l2.6,4.2h2.1l-2.8-4.6C526,166.1,526.5,165.7,527,165 M523.9,165.1h-3.3v-4.5h3.2
			c0.5,0,1,0.2,1.3,0.7c0.4,0.4,0.6,1,0.6,1.6c0,0.6-0.2,1.1-0.5,1.6C524.8,164.8,524.4,165.1,523.9,165.1 M541.5,165
			c0,0.5,0,0.9-0.1,1.3c-0.1,0.4-0.2,0.8-0.3,1.2c-0.2,0.4-0.4,0.7-0.6,1c-0.2,0.3-0.6,0.5-0.9,0.6c-0.4,0.2-0.8,0.2-1.3,0.2
			c-0.5,0-0.9-0.1-1.3-0.2c-0.4-0.2-0.7-0.4-0.9-0.6c-0.2-0.3-0.4-0.6-0.6-1c-0.2-0.4-0.3-0.8-0.3-1.2c-0.1-0.4-0.1-0.8-0.1-1.3
			v-6.1H533v6.1c0,0.6,0.1,1.2,0.2,1.8c0.1,0.6,0.3,1.1,0.6,1.6c0.3,0.5,0.6,1,1,1.3c0.4,0.4,0.9,0.7,1.5,0.9c0.6,0.2,1.3,0.3,2,0.3
			c0.9,0,1.7-0.2,2.4-0.5c0.7-0.3,1.2-0.7,1.6-1.3c0.4-0.6,0.7-1.2,0.9-1.9c0.2-0.7,0.3-1.5,0.3-2.3v-6.1h-1.9V165z M556.6,168.4
			c-0.4,0.3-0.7,0.5-1.1,0.7c-0.4,0.1-0.8,0.2-1.2,0.2c-0.7,0-1.4-0.2-2-0.6c-0.6-0.4-1.1-0.9-1.4-1.6c-0.3-0.7-0.5-1.4-0.5-2.2
			c0-0.4,0.1-0.8,0.2-1.3c0.1-0.4,0.3-0.8,0.5-1.2c0.2-0.4,0.5-0.7,0.8-1c0.3-0.3,0.7-0.5,1.1-0.7c0.4-0.2,0.9-0.3,1.4-0.3
			c0.3,0,0.6,0,0.9,0.1c0.3,0.1,0.6,0.2,0.9,0.3c0.3,0.1,0.5,0.3,0.8,0.6c0.2,0.3,0.4,0.6,0.6,0.9l1.5-1c-0.4-0.8-1-1.4-1.8-1.9
			c-0.8-0.5-1.7-0.7-2.8-0.7c-0.7,0-1.4,0.1-2,0.3c-0.6,0.2-1.2,0.5-1.6,0.9c-0.5,0.4-0.8,0.8-1.2,1.3c-0.3,0.5-0.6,1-0.7,1.6
			c-0.2,0.6-0.2,1.2-0.2,1.7c0,0.7,0.1,1.4,0.4,2.2c0.3,0.7,0.6,1.3,1.1,1.9c0.5,0.6,1,1,1.7,1.4c0.7,0.4,1.4,0.6,2.1,0.7
			c0.6,0.4,0.9,0.8,0.9,1.3c0,0.3-0.1,0.5-0.3,0.6c-0.2,0.1-0.4,0.2-0.7,0.2c-0.4,0-0.8-0.1-1.2-0.4l-0.5,1c0.6,0.3,1.3,0.5,2,0.5
			c0.6,0,1-0.1,1.4-0.4c0.3-0.3,0.5-0.7,0.5-1.2c0-0.6-0.3-1.1-0.9-1.6c0.9-0.1,1.7-0.4,2.5-0.9c0.8-0.5,1.3-1.1,1.6-1.8l-1.6-0.9
			C557.3,167.8,557,168.1,556.6,168.4 M567.5,158.9l-4.7,12h2l1.3-3.3h4.6l1.3,3.3h2l-4.7-12H567.5z M566.4,166.2l2-5.2l1.9,5.2
			H566.4z M566.5,157.3c0-0.1,0-0.2,0.1-0.3c0-0.1,0.1-0.2,0.3-0.3c0.1-0.1,0.3-0.1,0.4-0.1c0.2,0,0.4,0.1,0.6,0.2
			c0.2,0.1,0.5,0.2,0.7,0.4c0.3,0.1,0.5,0.2,0.8,0.2c0.3,0,0.5-0.1,0.8-0.2c0.2-0.1,0.4-0.3,0.6-0.4c0.1-0.2,0.3-0.3,0.3-0.5
			c0.1-0.2,0.2-0.4,0.2-0.5c0-0.1,0.1-0.2,0.1-0.3h-1.1c0,0,0,0.1,0,0.1c0,0,0,0.1-0.1,0.2c0,0.1-0.1,0.2-0.2,0.2
			c-0.1,0.1-0.2,0.1-0.3,0.2c-0.1,0.1-0.3,0.1-0.4,0.1c-0.2,0-0.5-0.1-0.7-0.2c-0.2-0.1-0.5-0.2-0.7-0.4c-0.3-0.1-0.5-0.2-0.8-0.2
			c-0.3,0-0.5,0.1-0.7,0.2c-0.2,0.1-0.4,0.3-0.5,0.4c-0.1,0.2-0.2,0.3-0.3,0.5c-0.1,0.2-0.2,0.4-0.2,0.5c0,0.1,0,0.3,0,0.3h1
			C566.4,157.4,566.4,157.4,566.5,157.3 M588.6,162.7c-0.3-0.7-0.7-1.4-1.1-2c-0.5-0.6-1.1-1-1.8-1.4c-0.7-0.4-1.5-0.5-2.3-0.5
			c-0.8,0-1.6,0.2-2.3,0.5c-0.7,0.3-1.3,0.8-1.8,1.3c-0.5,0.6-0.9,1.2-1.2,1.9c-0.3,0.7-0.4,1.5-0.4,2.3c0,0.6,0.1,1.2,0.3,1.8
			c0.2,0.6,0.4,1.1,0.8,1.7c0.3,0.5,0.7,1,1.2,1.4c0.5,0.4,1,0.7,1.6,0.9c0.6,0.2,1.2,0.3,1.9,0.3c0.8,0,1.6-0.2,2.3-0.5
			c0.7-0.3,1.3-0.8,1.8-1.3c0.5-0.6,0.9-1.2,1.2-1.9c0.3-0.7,0.4-1.5,0.4-2.3C589.1,164.2,588.9,163.4,588.6,162.7 M586.9,166.5
			c-0.2,0.5-0.4,1-0.7,1.4c-0.3,0.4-0.7,0.7-1.2,1c-0.5,0.3-1,0.4-1.6,0.4c-0.8,0-1.4-0.2-2-0.6c-0.6-0.4-1-1-1.3-1.6
			c-0.3-0.7-0.5-1.4-0.5-2.1c0-0.5,0.1-1.1,0.3-1.6c0.2-0.5,0.4-1,0.7-1.4c0.3-0.4,0.7-0.7,1.2-1c0.5-0.2,1-0.4,1.6-0.4
			c0.6,0,1.1,0.1,1.6,0.4c0.5,0.2,0.9,0.6,1.2,1c0.3,0.4,0.6,0.9,0.8,1.4c0.2,0.5,0.3,1.1,0.3,1.6C587.1,165.4,587,166,586.9,166.5"
			/>
		<path d="M323.5,38h4.1c-0.4,1-1.4,1.8-3,1.8c-2.3,0-3.9-1.7-3.9-3.9c0-2.3,1.6-4.1,3.8-4.1c1.4,0,2.7,0.7,3.3,1.9l3.5-2.1
			c-1.4-2.4-4-3.8-6.8-3.8c-4.4,0-8,3.5-8,8c0,4.5,3.5,8,8,8c4.2,0,7.4-3.1,7.4-7.9v-1.2h-8.5V38z M345.6,27.8c-4.5,0-8,3.5-8,8
			c0,4.4,3.5,8,8,8c4.4,0,8-3.5,8-8C353.6,31.4,350,27.8,345.6,27.8 M345.6,39.6c-2,0-3.6-1.6-3.6-3.8c0-2.2,1.6-3.8,3.6-3.8
			c2,0,3.5,1.6,3.5,3.8C349.2,38,347.6,39.6,345.6,39.6 M365.4,37.6l-3.5-9.4h-4.4l5.9,15.3h4.1l6-15.3H369L365.4,37.6z M378.8,43.5
			h10.9v-3.7h-6.8v-2.3h4.5v-3.3h-4.5v-2.3h6.8v-3.7h-10.9V43.5z M408.7,33.2c0-2.8-2.3-5-5.3-5h-7.4v15.3h4.1v-5.3h1.7l3,5.3h4.6
			l-3.4-5.9C407.7,36.7,408.7,35.1,408.7,33.2 M403,34.7h-2.9v-2.8h2.9c1,0,1.6,0.7,1.6,1.4C404.6,34,404,34.7,403,34.7 M424.7,36.3
			l-6.2-8.1h-3.5v15.3h4.1v-8l6.1,8h3.5V28.2h-4.1V36.3z M442.7,27.8c-4.5,0-8,3.5-8,8c0,4.4,3.5,8,8,8c4.4,0,8-3.5,8-8
			C450.7,31.4,447.2,27.8,442.7,27.8 M442.7,39.6c-2,0-3.6-1.6-3.6-3.8c0-2.2,1.6-3.8,3.6-3.8c2,0,3.5,1.6,3.5,3.8
			C446.3,38,444.7,39.6,442.7,39.6 M466.7,43.5h4.1v-5.6h4.5v-3.5h-4.5v-2.6h6.8v-3.7h-10.9V43.5z M483.8,43.5h10.9v-3.7h-6.8v-2.3
			h4.5v-3.3h-4.5v-2.3h6.8v-3.7h-10.9V43.5z M507.3,28.2h-6.2v15.3h6.2c4.6,0,8.1-3.3,8.1-7.6C515.5,31.5,512,28.2,507.3,28.2
			 M507.1,39.5h-1.9v-7.3h1.9c2.4,0,4.1,1.4,4.1,3.7C511.2,38.1,509.5,39.5,507.1,39.5 M521.4,43.5h10.9v-3.7h-6.8v-2.3h4.5v-3.3
			h-4.5v-2.3h6.8v-3.7h-10.9V43.5z M551.3,33.2c0-2.8-2.3-5-5.3-5h-7.4v15.3h4.1v-5.3h1.7l3,5.3h4.6l-3.4-5.9
			C550.3,36.7,551.3,35.1,551.3,33.2 M545.6,34.7h-2.9v-2.8h2.9c1,0,1.6,0.7,1.6,1.4C547.2,34,546.6,34.7,545.6,34.7 M562.9,28.2
			l-6.4,15.3h4.3l1.1-2.6h6l1.1,2.6h4.3l-6.4-15.3H562.9z M563.4,37.2l1.5-3.7l1.5,3.7H563.4z M582.9,39.5V28.2h-4.3v15.3h10.7v-3.9
			H582.9z"/>
		<rect x="561.6" y="60" class="st0" width="27.8" height="53.4"/>
		<rect x="589.4" y="113.4" class="st1" width="27.8" height="27"/>
		<rect x="561.6" y="113.4" class="st2" width="27.8" height="27"/>
		<rect x="529.1" y="60" class="st3" width="27.8" height="80.4"/>
		<rect x="468.1" y="95.7" class="st4" width="26.3" height="44.6"/>
		<rect x="494.4" y="60" class="st1" width="30.1" height="29.2"/>
		<path class="st0" d="M503.5,89.2h-9.2v51.1h9.2c14.1,0,25.6-11.4,25.6-25.6C529.1,100.7,517.7,89.2,503.5,89.2"/>
		<path class="st3" d="M485.9,60c-9.9,0-17.9,8-17.9,17.9c0,9.9,8,17.9,17.9,17.9h8.4V60H485.9z"/>
		<path class="st1" d="M316.2,92.2h6.4c8.9,0,16.1-7.2,16.1-16.1S331.5,60,322.6,60h-6.4V92.2z"/>
		<rect x="288.4" y="60" class="st3" width="27.8" height="32.2"/>
		<rect x="288.4" y="92.2" class="st0" width="27.8" height="48.1"/>
		<path class="st4" d="M325.3,92.2h-9.1v48.1h9.1c13.3,0,24.1-10.8,24.1-24.1C349.4,103,338.6,92.2,325.3,92.2"/>
		<polygon class="st3" points="380.9,108.5 349.4,108.5 349.4,140.4 401.6,140.4 		"/>
		<polygon class="st0" points="380.9,108.5 349.4,60 349.4,108.5 		"/>
		<path class="st1" d="M380.9,60h-31.5l31.5,48.5c13.4,0,24.3-10.9,24.3-24.3C405.2,70.9,394.3,60,380.9,60"/>
		<polygon class="st0" points="434.2,60 386.4,140.4 482,140.4 		"/>
		<polygon class="st2" points="468.1,117 468.1,140.4 482,140.4 		"/>
		<polygon class="st2" points="386.4,140.4 401.6,140.4 393.7,128.1 		"/>
		<path class="st1" d="M463.5,140.4c0-16.2-13.1-29.3-29.3-29.3c-16.2,0-29.3,13.1-29.3,29.3H463.5z"/>
	</g>
	<g>
		<g>
			<path d="M25.8,93v-11l-4.5,8.3h-1.4l-4.6-8.3v11h-2.4V77.6h2.6l5.1,9.4l5.1-9.4h2.6V93H25.8z"/>
			<path d="M36.9,93V77.6h2.4V93H36.9z"/>
			<path d="M50.3,82.1V93h-2.4V77.6h2l8.7,11.1V77.6h2.4V93h-2.1L50.3,82.1z"/>
			<path d="M69.7,93V77.6h2.4V93H69.7z"/>
			<path d="M89.8,81.3c-0.3-0.4-0.9-0.7-1.7-1.1c-0.8-0.3-1.6-0.5-2.5-0.5c-1,0-1.8,0.2-2.3,0.6c-0.5,0.4-0.7,0.9-0.7,1.6
				c0,0.2,0,0.4,0.1,0.6c0.1,0.2,0.1,0.3,0.2,0.5c0.1,0.1,0.2,0.3,0.4,0.4c0.2,0.1,0.4,0.2,0.5,0.3c0.2,0.1,0.4,0.2,0.7,0.3
				c0.3,0.1,0.6,0.2,0.8,0.2c0.3,0.1,0.6,0.2,1,0.3c0.7,0.2,1.3,0.3,1.7,0.5c0.5,0.2,0.9,0.4,1.4,0.6c0.4,0.2,0.8,0.5,1.1,0.8
				c0.3,0.3,0.5,0.7,0.6,1.1c0.2,0.4,0.2,0.9,0.2,1.5c0,0.6-0.1,1.2-0.3,1.7c-0.2,0.5-0.5,0.9-0.8,1.3s-0.7,0.6-1.2,0.9
				c-0.5,0.2-1,0.4-1.5,0.5s-1.1,0.2-1.8,0.2c-1.2,0-2.3-0.2-3.4-0.5c-1.1-0.4-2.1-0.9-3-1.5l1.1-2.1c0.4,0.5,1.2,0.9,2.2,1.3
				c1,0.4,2,0.6,3.1,0.6c1,0,1.7-0.2,2.2-0.5s0.8-0.8,0.8-1.5c0-0.3,0-0.5-0.1-0.7c-0.1-0.2-0.2-0.4-0.4-0.6
				c-0.2-0.2-0.4-0.3-0.6-0.4c-0.2-0.1-0.5-0.2-0.9-0.4c-0.4-0.1-0.7-0.2-1-0.3c-0.3-0.1-0.7-0.2-1.2-0.3c-0.8-0.2-1.5-0.4-2-0.6
				s-1-0.5-1.4-0.8c-0.4-0.3-0.7-0.7-0.9-1.1c-0.2-0.4-0.3-0.9-0.3-1.5c0-0.7,0.1-1.4,0.4-2s0.7-1.1,1.2-1.5
				c0.5-0.4,1.1-0.7,1.8-0.9c0.7-0.2,1.4-0.3,2.2-0.3c1.9,0,3.6,0.6,5.2,1.7L89.8,81.3z"/>
			<path d="M110.4,79.8h-5.1V93h-2.5V79.8h-5.1v-2.2h12.7V79.8z"/>
			<path d="M128.2,90.9V93h-10.6V77.6H128v2.2h-8v4.4h6.9v2H120v4.7H128.2z M123.9,76l-1.6-0.5l1.2-2.4h2.3L123.9,76z"/>
			<path d="M135.8,93V77.6h6.7c0.7,0,1.3,0.1,1.9,0.4s1.1,0.7,1.5,1.1c0.4,0.5,0.7,1,1,1.6c0.2,0.6,0.4,1.2,0.4,1.8
				c0,1-0.3,2-0.8,2.8c-0.6,0.8-1.3,1.4-2.2,1.7l3.6,5.9h-2.7l-3.4-5.4h-3.6V93H135.8z M138.2,85.5h4.3c0.7,0,1.2-0.3,1.7-0.8
				c0.4-0.6,0.7-1.2,0.7-2c0-0.8-0.2-1.5-0.7-2c-0.5-0.6-1.1-0.8-1.7-0.8h-4.1V85.5z"/>
			<path d="M155.3,93V77.6h2.4V93H155.3z"/>
			<path d="M165.3,85.3c0-1,0.2-2,0.6-3c0.4-1,0.9-1.8,1.5-2.5c0.7-0.7,1.4-1.3,2.4-1.7c0.9-0.4,1.9-0.6,2.9-0.6
				c1.1,0,2.1,0.2,3,0.7c0.9,0.5,1.7,1,2.3,1.8s1.1,1.6,1.5,2.5c0.4,0.9,0.5,1.9,0.5,2.9c0,1-0.2,2-0.6,2.9
				c-0.4,0.9-0.9,1.8-1.5,2.5c-0.6,0.7-1.4,1.3-2.4,1.7c-0.9,0.4-1.9,0.6-2.9,0.6c-0.9,0-1.7-0.1-2.5-0.4c-0.8-0.3-1.5-0.7-2.1-1.2
				c-0.6-0.5-1.1-1.1-1.5-1.7s-0.8-1.4-1-2.1C165.5,86.9,165.3,86.1,165.3,85.3z M172.7,91c0.7,0,1.4-0.2,2.1-0.5
				c0.6-0.3,1.1-0.8,1.5-1.3c0.4-0.5,0.7-1.1,0.9-1.8c0.2-0.7,0.3-1.3,0.3-2c0-0.7-0.1-1.4-0.4-2.1c-0.2-0.7-0.6-1.3-1-1.8
				c-0.4-0.5-0.9-0.9-1.5-1.2c-0.6-0.3-1.3-0.5-2-0.5c-0.7,0-1.4,0.2-2.1,0.5c-0.6,0.3-1.2,0.7-1.6,1.3c-0.4,0.5-0.7,1.1-1,1.8
				c-0.2,0.7-0.3,1.3-0.3,2c0,1,0.2,1.9,0.6,2.7s1,1.5,1.7,2.1C170.9,90.7,171.8,91,172.7,91z"/>
			<path d="M198.3,93V77.6h5.5c1.2,0,2.3,0.2,3.3,0.6s1.8,1,2.4,1.7c0.6,0.7,1.1,1.5,1.4,2.4c0.3,0.9,0.5,1.9,0.5,3
				c0,2.3-0.7,4.2-2.1,5.6c-1.4,1.4-3.2,2.1-5.5,2.1H198.3z M203.7,79.8h-3v11.1h3c1.1,0,2-0.2,2.7-0.7c0.8-0.5,1.3-1.2,1.7-2
				c0.4-0.8,0.6-1.8,0.6-2.9c0-1.6-0.4-3-1.3-4C206.5,80.3,205.3,79.8,203.7,79.8z"/>
			<path d="M222.8,77.6h2.3l6,15.4h-2.6l-1.6-4.2H221l-1.6,4.2h-2.6L222.8,77.6z M226.4,87.1l-2.5-6.8l-2.6,6.8H226.4z"/>
		</g>
		<g>
			<path d="M151.9,115.1c-0.1,0-0.1-0.1-0.3-0.1c-0.1-0.1-0.3-0.2-0.6-0.3c-0.3-0.2-0.6-0.3-1-0.4c-0.3-0.1-0.7-0.2-1.1-0.3
				c-0.4-0.1-0.8-0.2-1.1-0.2c-0.8,0-1.2,0.3-1.2,0.8c0,0.1,0,0.2,0.1,0.3c0,0.1,0.1,0.2,0.2,0.3c0.1,0.1,0.2,0.1,0.3,0.2
				c0.1,0.1,0.2,0.1,0.4,0.2c0.2,0.1,0.4,0.1,0.5,0.2c0.1,0,0.4,0.1,0.6,0.2c0.3,0.1,0.5,0.2,0.7,0.2c0.6,0.2,1.2,0.4,1.6,0.6
				c0.4,0.2,0.9,0.4,1.3,0.7c0.4,0.3,0.7,0.6,1,0.9c0.2,0.3,0.4,0.7,0.6,1.2c0.1,0.4,0.2,1,0.2,1.5c0,0.7-0.1,1.4-0.3,1.9
				c-0.2,0.6-0.5,1-0.9,1.4c-0.4,0.4-0.8,0.7-1.3,0.9c-0.5,0.2-1,0.4-1.6,0.5c-0.5,0.1-1.1,0.1-1.7,0.1c-1.1,0-2.3-0.2-3.5-0.5
				c-1.2-0.3-2.3-0.8-3.2-1.3l1.8-3.7c0.1,0,0.2,0.1,0.3,0.2c0.1,0.1,0.4,0.2,0.8,0.4c0.4,0.2,0.8,0.4,1.1,0.5
				c0.4,0.1,0.8,0.3,1.3,0.4c0.5,0.1,1,0.2,1.4,0.2c0.8,0,1.2-0.2,1.2-0.7c0-0.2-0.1-0.3-0.2-0.5c-0.1-0.1-0.3-0.3-0.5-0.4
				c-0.2-0.1-0.5-0.2-0.7-0.3c-0.2-0.1-0.6-0.2-1-0.3c-0.4-0.1-0.8-0.2-1-0.3c-1.4-0.5-2.4-1-3-1.7c-0.6-0.7-0.9-1.5-0.9-2.6
				c0-0.8,0.2-1.6,0.5-2.2c0.3-0.7,0.7-1.2,1.3-1.6c0.5-0.4,1.1-0.7,1.8-1c0.7-0.2,1.4-0.3,2.2-0.3c1.6,0,3.6,0.6,5.8,1.7
				L151.9,115.1z"/>
			<path d="M164.3,110.1h4.7l4.9,15.4h-4.3l-0.9-3h-4.1l-0.9,3h-4.3L164.3,110.1z M168,119.7l-1.4-5.4l-1.4,5.4H168z"/>
			<path d="M186.5,125.7c-1,0-1.8-0.1-2.6-0.4c-0.8-0.3-1.4-0.6-2-1.1c-0.5-0.5-1-1-1.3-1.7s-0.6-1.3-0.8-2.1
				c-0.2-0.7-0.2-1.5-0.2-2.4v-7.9h4.2v7.9c0,0.5,0.1,1,0.2,1.5c0.1,0.5,0.3,0.9,0.5,1.2c0.2,0.4,0.5,0.7,0.8,0.9
				c0.4,0.2,0.8,0.3,1.2,0.3c0.5,0,0.9-0.1,1.3-0.3s0.6-0.5,0.9-0.9c0.2-0.4,0.4-0.8,0.5-1.2c0.1-0.4,0.2-0.9,0.2-1.4v-7.9h4.2v7.9
				c0,1.1-0.1,2.1-0.4,3c-0.3,0.9-0.7,1.7-1.3,2.4c-0.6,0.7-1.3,1.2-2.2,1.6C188.7,125.5,187.6,125.7,186.5,125.7z M187.8,109.4
				l-2.6-0.7l1.1-3.1h3.7L187.8,109.4z"/>
			<path d="M201,125.5v-15.4h5.9c1.2,0,2.4,0.2,3.4,0.6c1,0.4,1.8,1,2.4,1.7c0.6,0.7,1.1,1.5,1.5,2.4c0.3,0.9,0.5,1.9,0.5,3
				c0,2.3-0.7,4.2-2.1,5.6c-1.4,1.4-3.3,2.1-5.6,2.1H201z M206.9,113.8h-1.7v8h1.7c1.1,0,1.9-0.4,2.6-1.1c0.6-0.7,0.9-1.7,0.9-2.9
				c0-1.2-0.3-2.2-0.9-2.9C208.8,114.2,208,113.8,206.9,113.8z"/>
			<path d="M232.7,121.8v3.7h-11v-15.4h10.8v3.7h-6.6v2.2h5.6v3.4h-5.6v2.4H232.7z"/>
		</g>
	</g>
</g>
<g>
</g>
<g>
</g>
<g>
</g>
<g>
</g>
<g>
</g>
<g>
</g>
</svg>
