<?xml version="1.0" encoding="utf-8"?>
<!-- Generator: Adobe Illustrator 26.3.1, SVG Export Plug-In . SVG Version: 6.00 Build 0)  -->
<svg version="1.1" id="Camada_1" xmlns="http://www.w3.org/2000/svg" xmlns:xlink="http://www.w3.org/1999/xlink" x="0px" y="0px"
	 viewBox="0 0 1079.39 994.19" style="enable-background:new 0 0 1079.39 994.19;" xml:space="preserve">
<style type="text/css">
	.st0{fill-rule:evenodd;clip-rule:evenodd;fill:#373435;}
	.st1{fill-rule:evenodd;clip-rule:evenodd;fill:#D2D3D5;}
	.st2{fill-rule:evenodd;clip-rule:evenodd;fill:#FFFFFF;}
	.st3{fill:#373435;}
</style>
<g>
	<polygon class="st0" points="193.15,474.05 531.12,128.04 869.09,474.05 798.3,474.05 531.05,202.7 264.88,474.05 	"/>
	<polygon class="st1" points="193.16,383.53 244.91,342.61 795.04,474.1 	"/>
	<polygon class="st1" points="209.36,307.98 265.85,273.94 795.04,474.1 	"/>
	<polygon class="st1" points="235.51,233.73 295.89,207.27 795.04,474.1 	"/>
	<polygon class="st1" points="274.55,157.45 338.03,139.74 795.04,474.1 	"/>
	<path class="st0" d="M318.41,477.21c137.6,0,275.21,0,412.81,0h5.03l1.27,4.92l22.35,86.64l22.25-86.64l1.26-4.92
		c28.52,0,57.04,0,85.56,0v6.53v182.64v6.53h-6.53h-46.1h-6.53v-6.53v-87.7l-22.94,89.31l-1.26,4.92h-5.03h-41.72h-5.07l-1.26-4.92
		l-22.78-89.03v87.42v6.53h-6.53h-46.23h-6.53v-6.53v-136.9h-37.29v136.9v6.53h-6.53H550.2h-6.53v-6.53V529.52H435.88v18.83h64.23
		h6.53v6.53v36.87v6.53h-6.53h-64.23v68.1v6.53h-6.53h-56.68h-6.53v-6.53v-22.36c-2.3,3.19-4.85,6.19-7.65,8.99l-0.01-0.01
		c-3.89,3.89-7.9,7.21-12.02,9.97c-4.25,2.84-8.56,5.07-12.93,6.69h-0.02c-5.91,2.18-12.36,3.81-19.34,4.88
		c-6.91,1.07-14.38,1.6-22.41,1.6c-4.49,0-9.33-0.16-14.52-0.5c-5.01-0.32-10.13-0.8-15.33-1.43v0c-5.58-0.66-10.73-1.65-15.45-2.98
		c-4.78-1.34-9.15-3.06-13.12-5.13c-3.93-2.06-7.68-4.54-11.23-7.43c-3.54-2.88-6.9-6.17-10.08-9.85
		c-3.21-3.72-5.93-7.53-8.14-11.41c-2.25-3.95-4-7.97-5.21-12.04c-1.81-6.03-3.18-11.77-4.1-17.21c-0.94-5.55-1.41-10.72-1.41-15.52
		v-108.9v-6.53h6.53h56.34h6.53v6.53v111.5c0,4.27,0.56,7.99,1.68,11.15c1.06,2.99,2.62,5.54,4.68,7.63
		c2.08,2.11,4.57,3.7,7.47,4.76h0.03c3.09,1.13,6.71,1.7,10.87,1.7c4.12,0,7.72-0.56,10.79-1.67c2.88-1.04,5.38-2.62,7.47-4.71
		c2.06-2.06,3.62-4.58,4.65-7.53c1.12-3.19,1.69-6.98,1.69-11.33v-111.5v-6.53H318.41z M318.41,483.73h412.81l28.66,111.12
		l28.53-111.12h73.99v182.64h-46.1V527.11l-35.76,139.27h-41.72L703.2,527.11v139.27h-46.22V522.95h-50.35v143.43H550.2l0-143.38
		H429.35v31.89h70.76v36.87h-70.76v74.63h-56.68v-53.73c-0.78,3.6-1.77,7.12-2.97,10.57c-3.36,9.57-8.63,17.99-15.82,25.18
		c-7.19,7.19-14.71,12.2-22.62,15.14c-10.97,4.04-24.11,6.08-39.51,6.08c-8.89,0-18.58-0.59-29.09-1.87
		c-10.5-1.23-19.26-3.7-26.32-7.4c-7.06-3.7-13.52-8.97-19.39-15.78c-5.87-6.8-9.87-13.82-12.03-21.05
		c-3.49-11.61-5.23-21.9-5.23-30.87v-108.9h56.34v111.5c0,9.99,2.76,17.78,8.25,23.35c5.53,5.61,13.18,8.42,23.01,8.42
		c9.69,0,17.35-2.76,22.88-8.29c5.49-5.49,8.25-13.35,8.25-23.47V483.73z"/>
	<path class="st2" d="M318.41,483.73h412.81l28.66,111.12l28.53-111.12h73.99v182.64h-46.1V527.11l-35.76,139.27h-41.72
		L703.2,527.11v139.27h-46.22V522.95h-50.35v143.43H550.2l0-143.38H429.35v31.89h70.76v36.87h-70.76v74.63h-56.68v-53.73
		c-0.78,3.6-1.77,7.12-2.97,10.57c-3.36,9.57-8.63,17.99-15.82,25.18c-7.19,7.19-14.71,12.2-22.62,15.14
		c-10.97,4.04-24.11,6.08-39.51,6.08c-8.89,0-18.58-0.59-29.09-1.87c-10.5-1.23-19.26-3.7-26.32-7.4
		c-7.06-3.7-13.52-8.97-19.39-15.78c-5.87-6.8-9.87-13.82-12.03-21.05c-3.49-11.61-5.23-21.9-5.23-30.87v-108.9h56.34v111.5
		c0,9.99,2.76,17.78,8.25,23.35c5.53,5.61,13.18,8.42,23.01,8.42c9.69,0,17.35-2.76,22.88-8.29c5.49-5.49,8.25-13.35,8.25-23.47
		V483.73z"/>
	<path class="st3" d="M953.47,845.6c0,5.83-1.96,10.37-5.86,13.61c-3.91,3.24-9.38,4.87-16.43,4.87c-7.01,0-12.49-1.63-16.42-4.88
		c-3.93-3.27-5.9-7.79-5.9-13.6c0-5.81,1.97-10.34,5.9-13.6c3.93-3.25,9.41-4.88,16.42-4.88c7.05,0,12.52,1.63,16.43,4.87
		C951.51,835.23,953.47,839.77,953.47,845.6 M919.96,845.6c0,3.36,1.04,6.11,3.14,8.24c2.09,2.14,4.79,3.21,8.09,3.21
		c3.29,0,5.99-1.07,8.09-3.21c2.1-2.13,3.16-4.88,3.16-8.24c0-3.36-1.06-6.11-3.16-8.24c-2.09-2.14-4.8-3.21-8.09-3.21
		c-3.3,0-5.99,1.07-8.09,3.21C921.01,839.49,919.96,842.24,919.96,845.6z M889.96,863.22h-10.59v-23.24c0-1.03-0.05-2.55-0.15-4.56
		c-0.1-2.01-0.25-4.49-0.47-7.44h10.66l0.34,5.9c1.12-2.28,2.78-3.98,5-5.09c2.2-1.11,5.03-1.66,8.48-1.66h1v7.51
		c-0.5-0.07-1-0.13-1.47-0.16c-0.48-0.03-0.95-0.05-1.41-0.05c-3.76,0-6.59,1.11-8.51,3.35c-1.92,2.22-2.88,5.51-2.88,9.85V863.22z
		 M856.39,863.22v-35.25h10.91v35.25H856.39z M867.64,812.66v9.15h-11.59v-9.15H867.64z M818,848.28v0.34
		c0,2.93,0.92,5.17,2.76,6.75c1.84,1.58,4.45,2.36,7.83,2.36c2.34,0,4.21-0.5,5.64-1.52c1.44-1.02,2.27-2.45,2.53-4.3H847
		c-0.5,3.84-2.41,6.84-5.72,8.99c-3.31,2.16-7.68,3.24-13.1,3.24c-6.72,0-11.96-1.58-15.72-4.75c-3.76-3.16-5.64-7.58-5.64-13.25
		c0-5.9,1.88-10.54,5.64-13.94c3.76-3.39,8.93-5.09,15.52-5.09c6.51,0,11.42,1.66,14.74,4.97c3.31,3.31,4.97,8.24,4.97,14.78v1.4
		H818z M818,842.11l19.17-0.03c-0.12-2.66-0.98-4.66-2.59-6.03c-1.61-1.36-3.94-2.04-6.98-2.04c-2.72,0-4.93,0.72-6.64,2.14
		C819.26,837.58,818.27,839.57,818,842.11z M757.31,863.22V838.3c0-0.66-0.05-1.85-0.15-3.57c-0.1-1.71-0.26-3.97-0.47-6.75h10.33
		l0.41,6.11c1.62-2.31,3.64-4.04,6.05-5.17c2.41-1.15,5.25-1.72,8.55-1.72c5.12,0,9.09,1.26,11.94,3.79
		c2.84,2.53,4.27,6.06,4.27,10.62v21.63h-10.25v-18.41c0-3.57-0.77-6.25-2.32-8.04c-1.53-1.79-3.83-2.69-6.87-2.69
		c-3.17,0-5.81,1.04-7.9,3.14c-2.09,2.09-3.13,4.75-3.13,7.97v18.03H757.31z M734.26,863.22v-35.25h10.91v35.25H734.26z
		 M745.51,812.66v9.15h-11.59v-9.15H745.51z M651.03,863.22v-50.57h17.04l18.41,39.77l18.09-39.77h16.47v50.57h-10.91v-40.31
		l-18.17,40.31h-12.37l-18.44-40.31v40.31H651.03z M614.79,845.6c0,5.83-1.96,10.37-5.87,13.61c-3.91,3.24-9.38,4.87-16.43,4.87
		c-7.01,0-12.49-1.63-16.42-4.88c-3.93-3.27-5.9-7.79-5.9-13.6c0-5.81,1.97-10.34,5.9-13.6c3.93-3.25,9.41-4.88,16.42-4.88
		c7.05,0,12.52,1.63,16.43,4.87C612.84,835.23,614.79,839.77,614.79,845.6z M581.29,845.6c0,3.36,1.04,6.11,3.14,8.24
		c2.09,2.14,4.79,3.21,8.08,3.21c3.29,0,5.99-1.07,8.09-3.21c2.11-2.13,3.16-4.88,3.16-8.24c0-3.36-1.05-6.11-3.16-8.24
		c-2.09-2.14-4.8-3.21-8.09-3.21c-3.3,0-5.99,1.07-8.08,3.21C582.33,839.49,581.29,842.24,581.29,845.6z M550.16,863.22v-50.57
		h10.98v50.57H550.16z M538.29,827.97v25c0,0.73,0.05,1.93,0.15,3.62c0.11,1.67,0.26,3.9,0.47,6.63h-10.32l-0.41-6.04
		c-1.63,2.31-3.64,4.04-6.05,5.17c-2.41,1.15-5.27,1.72-8.56,1.72c-5.12,0-9.1-1.26-11.95-3.79c-2.84-2.53-4.27-6.06-4.27-10.62
		v-21.7h10.25v18.48c0,3.57,0.76,6.25,2.29,8.04c1.53,1.79,3.84,2.69,6.89,2.69c3.18,0,5.79-1.04,7.85-3.14
		c2.06-2.09,3.09-4.75,3.09-7.97v-18.11H538.29z M475.48,844.19c0-3.2-0.95-5.75-2.84-7.65c-1.9-1.91-4.44-2.87-7.61-2.87
		c-3.18,0-5.7,0.98-7.55,2.95c-1.85,1.97-2.77,4.62-2.77,7.98c0,3.22,0.96,5.81,2.87,7.74c1.91,1.93,4.44,2.89,7.58,2.89
		c3.21,0,5.72-0.98,7.56-2.95C474.56,850.31,475.48,847.62,475.48,844.19z M476.27,827.97h10.19c-0.21,1.8-0.36,3.7-0.47,5.67
		c-0.1,1.97-0.16,4.01-0.19,6.13v19.58c0,3.03-0.18,5.43-0.53,7.17c-0.36,1.76-0.95,3.2-1.77,4.34c-1.6,2.24-3.89,3.86-6.86,4.86
		c-2.97,0.99-7.15,1.49-12.52,1.49c-6.38,0-11.2-1.06-14.48-3.15c-3.29-2.1-4.96-5.23-5.03-9.36h10.98c0.14,1.9,0.96,3.31,2.46,4.26
		c1.49,0.95,3.67,1.43,6.55,1.43c3.68,0,6.4-0.69,8.15-2.06c1.77-1.37,2.65-3.5,2.65-6.38v-5.42c-1.87,1.92-3.97,3.35-6.27,4.26
		c-2.3,0.91-4.94,1.37-7.89,1.37c-5.3,0-9.62-1.61-12.94-4.83c-3.32-3.22-4.98-7.44-4.98-12.65c0-5.37,1.63-9.65,4.88-12.8
		c3.26-3.17,7.65-4.75,13.19-4.75c2.97,0,5.62,0.5,7.95,1.5c2.34,0.99,4.48,2.54,6.45,4.64L476.27,827.97z M393.33,863.22V838.3
		c0-0.66-0.05-1.85-0.15-3.57c-0.1-1.71-0.26-3.97-0.47-6.75h10.33l0.41,6.11c1.62-2.31,3.64-4.04,6.05-5.17
		c2.41-1.15,5.25-1.72,8.55-1.72c5.12,0,9.09,1.26,11.94,3.79c2.84,2.53,4.27,6.06,4.27,10.62v21.63h-10.25v-18.41
		c0-3.57-0.77-6.25-2.32-8.04c-1.53-1.79-3.83-2.69-6.87-2.69c-3.17,0-5.81,1.04-7.9,3.14c-2.09,2.09-3.13,4.75-3.13,7.97v18.03
		H393.33z M351.01,823.21l8.44-9.29h8.98l8.51,9.29h-5.42l-7.57-5.35l-7.58,5.35H351.01z M371.94,863.22l-0.31-4.84
		c-1.58,1.88-3.53,3.3-5.86,4.26c-2.33,0.96-4.98,1.44-7.96,1.44c-4.55,0-8.15-1.03-10.79-3.09c-2.63-2.05-3.96-4.82-3.96-8.28
		c0-4.19,1.76-7.18,5.28-9c3.52-1.81,9.44-2.73,17.76-2.73h5.45v-0.66c0-2.54-0.64-4.42-1.92-5.66c-1.28-1.23-3.25-1.85-5.93-1.85
		c-2.4,0-4.23,0.4-5.46,1.2c-1.24,0.8-1.97,2.01-2.18,3.64l-9.98,0.04c0.24-3.36,1.94-5.97,5.08-7.81
		c3.13-1.84,7.47-2.76,13.03-2.76c5.85,0,10.25,1.18,13.2,3.55c2.95,2.38,4.42,5.9,4.42,10.58v14.12c0,1.51,0.03,2.9,0.12,4.2
		c0.08,1.29,0.2,2.5,0.36,3.65H371.94z M371.57,846.94h-6.58c-4.14,0-7.06,0.46-8.74,1.36c-1.68,0.9-2.52,2.41-2.52,4.53
		c0,1.7,0.61,2.97,1.84,3.85c1.22,0.88,2.99,1.32,5.34,1.32c3.26,0,5.86-0.94,7.78-2.81c1.92-1.87,2.88-4.41,2.88-7.63V846.94z
		 M323.19,863.22v-35.25h10.91v35.25H323.19z M334.43,812.66v9.15h-11.59v-9.15H334.43z M301.21,863.22h-10.59v-23.24
		c0-1.03-0.05-2.55-0.15-4.56c-0.1-2.01-0.26-4.49-0.47-7.44h10.66l0.34,5.9c1.12-2.28,2.78-3.98,5-5.09
		c2.2-1.11,5.03-1.66,8.48-1.66h0.99v7.51c-0.5-0.07-0.99-0.13-1.47-0.16c-0.48-0.03-0.95-0.05-1.4-0.05
		c-3.76,0-6.59,1.11-8.51,3.35c-1.92,2.22-2.88,5.51-2.88,9.85V863.22z M266.81,821.09v42.13h-11.39v-42.13h-19.78v-8.44h51.05v8.44
		H266.81z M205.24,845.6c0,5.83-1.95,10.37-5.87,13.61c-3.91,3.24-9.38,4.87-16.43,4.87c-7.01,0-12.49-1.63-16.42-4.88
		c-3.93-3.27-5.9-7.79-5.9-13.6c0-5.81,1.97-10.34,5.9-13.6c3.93-3.25,9.41-4.88,16.42-4.88c7.05,0,12.52,1.63,16.43,4.87
		C203.28,835.23,205.24,839.77,205.24,845.6z M171.73,845.6c0,3.36,1.04,6.11,3.14,8.24c2.09,2.14,4.79,3.21,8.09,3.21
		c3.29,0,5.99-1.07,8.09-3.21c2.11-2.13,3.16-4.88,3.16-8.24c0-3.36-1.05-6.11-3.16-8.24c-2.09-2.14-4.8-3.21-8.09-3.21
		c-3.3,0-5.99,1.07-8.09,3.21C172.77,839.49,171.73,842.24,171.73,845.6z M151.57,812.66v38.7c0,2.13,0.05,4.19,0.15,6.18
		c0.11,1.99,0.26,3.89,0.47,5.69h-10.25l-0.48-5.62c-2.01,2.21-4.19,3.85-6.54,4.89c-2.36,1.05-5.02,1.58-8,1.58
		c-5.6,0-10.03-1.65-13.27-4.95c-3.24-3.31-4.87-7.82-4.87-13.53c0-5.51,1.67-9.97,5.02-13.38c3.35-3.41,7.7-5.1,13.05-5.1
		c2.97,0,5.62,0.49,7.92,1.46c2.3,0.97,4.41,2.47,6.31,4.5v-20.43H151.57z M141.26,846.01c0-3.65-0.94-6.57-2.82-8.74
		c-1.87-2.16-4.35-3.25-7.43-3.25c-3.48,0-6.19,1.05-8.13,3.16c-1.94,2.09-2.91,5.04-2.91,8.84c0,3.48,0.96,6.26,2.87,8.33
		c1.91,2.08,4.46,3.12,7.67,3.12c3.24,0,5.85-1.04,7.82-3.12C140.27,852.27,141.26,849.48,141.26,846.01z M940.61,779.87v-50.57
		h10.98v50.57H940.61z M919.22,779.87l-0.3-4.85c-1.58,1.88-3.53,3.3-5.86,4.26c-2.33,0.96-4.98,1.44-7.96,1.44
		c-4.55,0-8.15-1.03-10.79-3.09c-2.63-2.05-3.96-4.82-3.96-8.28c0-4.19,1.76-7.19,5.28-9c3.52-1.81,9.44-2.72,17.77-2.72h5.45v-0.66
		c0-2.54-0.64-4.42-1.92-5.66c-1.28-1.23-3.25-1.85-5.93-1.85c-2.4,0-4.23,0.4-5.46,1.2c-1.24,0.8-1.97,2.01-2.18,3.64l-9.98,0.04
		c0.24-3.36,1.94-5.97,5.08-7.81c3.13-1.84,7.47-2.76,13.03-2.76c5.85,0,10.25,1.18,13.2,3.55c2.95,2.37,4.42,5.9,4.42,10.58v14.12
		c0,1.51,0.03,2.9,0.12,4.2c0.08,1.29,0.2,2.5,0.36,3.65H919.22z M918.84,763.6h-6.58c-4.14,0-7.06,0.46-8.74,1.36
		c-1.68,0.9-2.52,2.41-2.52,4.53c0,1.7,0.61,2.97,1.84,3.85c1.22,0.88,2.99,1.32,5.34,1.32c3.26,0,5.86-0.94,7.78-2.81
		c1.92-1.87,2.88-4.41,2.88-7.63V763.6z M871.87,779.87h-10.59v-23.24c0-1.03-0.05-2.55-0.15-4.56c-0.11-2.01-0.26-4.49-0.47-7.44
		h10.66l0.34,5.9c1.12-2.28,2.79-3.98,5-5.09c2.2-1.11,5.03-1.66,8.48-1.66h1v7.51c-0.5-0.07-1-0.13-1.48-0.16
		c-0.48-0.04-0.95-0.05-1.4-0.05c-3.76,0-6.59,1.11-8.51,3.35c-1.92,2.22-2.88,5.51-2.88,9.85V779.87z M823.29,764.93v0.34
		c0,2.93,0.92,5.17,2.76,6.75c1.84,1.58,4.45,2.36,7.83,2.36c2.34,0,4.21-0.5,5.64-1.52c1.44-1.02,2.27-2.45,2.53-4.3h10.24
		c-0.5,3.84-2.41,6.84-5.72,8.99c-3.31,2.17-7.68,3.24-13.1,3.24c-6.72,0-11.96-1.58-15.72-4.75c-3.76-3.16-5.64-7.58-5.64-13.25
		c0-5.9,1.88-10.54,5.64-13.94c3.76-3.39,8.93-5.09,15.52-5.09c6.51,0,11.42,1.66,14.73,4.97c3.31,3.31,4.97,8.24,4.97,14.78v1.4
		H823.29z M823.29,758.76l19.17-0.04c-0.12-2.66-0.98-4.66-2.58-6.03c-1.61-1.36-3.94-2.04-6.99-2.04c-2.72,0-4.93,0.71-6.64,2.14
		C824.55,754.23,823.56,756.22,823.29,758.76z M803.13,729.31v38.7c0,2.13,0.05,4.19,0.15,6.18c0.11,1.99,0.26,3.89,0.47,5.69
		h-10.25l-0.48-5.62c-2.01,2.21-4.19,3.85-6.54,4.89c-2.37,1.05-5.02,1.58-8,1.58c-5.6,0-10.03-1.65-13.27-4.95
		c-3.24-3.31-4.87-7.82-4.87-13.53c0-5.51,1.67-9.97,5.02-13.38c3.35-3.41,7.7-5.1,13.05-5.1c2.97,0,5.62,0.49,7.92,1.46
		c2.3,0.97,4.41,2.47,6.31,4.51v-20.43H803.13z M792.82,762.66c0-3.65-0.94-6.57-2.82-8.74c-1.87-2.17-4.35-3.25-7.43-3.25
		c-3.48,0-6.19,1.05-8.13,3.16c-1.94,2.09-2.91,5.04-2.91,8.84c0,3.48,0.96,6.26,2.87,8.33c1.91,2.08,4.46,3.12,7.66,3.12
		c3.24,0,5.85-1.04,7.82-3.12C791.83,768.92,792.82,766.14,792.82,762.66z M724.68,764.93v0.34c0,2.93,0.92,5.17,2.76,6.75
		c1.84,1.58,4.45,2.36,7.83,2.36c2.34,0,4.21-0.5,5.64-1.52c1.44-1.02,2.27-2.45,2.53-4.3h10.24c-0.5,3.84-2.41,6.84-5.72,8.99
		c-3.31,2.17-7.68,3.24-13.1,3.24c-6.72,0-11.96-1.58-15.71-4.75c-3.76-3.16-5.64-7.58-5.64-13.25c0-5.9,1.88-10.54,5.64-13.94
		c3.75-3.39,8.93-5.09,15.52-5.09c6.51,0,11.42,1.66,14.74,4.97c3.31,3.31,4.97,8.24,4.97,14.78v1.4H724.68z M724.68,758.76
		l19.17-0.04c-0.12-2.66-0.98-4.66-2.58-6.03c-1.61-1.36-3.94-2.04-6.99-2.04c-2.72,0-4.93,0.71-6.64,2.14
		C725.95,754.23,724.95,756.22,724.68,758.76z M668.14,779.87v-50.57h40.28v7.68h-29.21v12.48h26.85v7.96h-26.85v22.46H668.14z
		 M602.83,764.93v0.34c0,2.93,0.92,5.17,2.76,6.75c1.84,1.58,4.45,2.36,7.83,2.36c2.34,0,4.21-0.5,5.64-1.52
		c1.44-1.02,2.27-2.45,2.53-4.3h10.24c-0.5,3.84-2.41,6.84-5.72,8.99c-3.31,2.17-7.68,3.24-13.1,3.24c-6.72,0-11.96-1.58-15.71-4.75
		c-3.76-3.16-5.64-7.58-5.64-13.25c0-5.9,1.88-10.54,5.64-13.94c3.75-3.39,8.93-5.09,15.52-5.09c6.51,0,11.42,1.66,14.73,4.97
		c3.31,3.31,4.97,8.24,4.97,14.78v1.4H602.83z M602.83,758.76l19.17-0.04c-0.12-2.66-0.98-4.66-2.58-6.03
		c-1.61-1.36-3.94-2.04-6.99-2.04c-2.72,0-4.93,0.71-6.64,2.14C604.09,754.23,603.09,756.22,602.83,758.76z M582.66,729.31v38.7
		c0,2.13,0.05,4.19,0.15,6.18c0.11,1.99,0.26,3.89,0.47,5.69h-10.25l-0.48-5.62c-2.02,2.21-4.19,3.85-6.54,4.89
		c-2.36,1.05-5.02,1.58-8,1.58c-5.6,0-10.03-1.65-13.27-4.95c-3.24-3.31-4.87-7.82-4.87-13.53c0-5.51,1.67-9.97,5.02-13.38
		c3.35-3.41,7.7-5.1,13.05-5.1c2.97,0,5.62,0.49,7.92,1.46c2.3,0.97,4.41,2.47,6.31,4.51v-20.43H582.66z M572.35,762.66
		c0-3.65-0.94-6.57-2.82-8.74c-1.87-2.17-4.35-3.25-7.43-3.25c-3.48,0-6.19,1.05-8.13,3.16c-1.94,2.09-2.91,5.04-2.91,8.84
		c0,3.48,0.96,6.26,2.87,8.33c1.91,2.08,4.46,3.12,7.67,3.12c3.24,0,5.85-1.04,7.82-3.12C571.37,768.92,572.35,766.14,572.35,762.66
		z M520.88,779.87l-0.3-4.85c-1.58,1.88-3.53,3.3-5.86,4.26c-2.33,0.96-4.99,1.44-7.96,1.44c-4.55,0-8.14-1.03-10.79-3.09
		c-2.63-2.05-3.96-4.82-3.96-8.28c0-4.19,1.76-7.19,5.28-9c3.52-1.81,9.44-2.72,17.77-2.72h5.45v-0.66c0-2.54-0.64-4.42-1.92-5.66
		c-1.27-1.23-3.25-1.85-5.93-1.85c-2.4,0-4.23,0.4-5.47,1.2c-1.24,0.8-1.97,2.01-2.18,3.64l-9.98,0.04
		c0.25-3.36,1.94-5.97,5.08-7.81c3.12-1.84,7.47-2.76,13.02-2.76c5.85,0,10.25,1.18,13.2,3.55c2.95,2.37,4.42,5.9,4.42,10.58v14.12
		c0,1.51,0.04,2.9,0.12,4.2c0.08,1.29,0.2,2.5,0.36,3.65H520.88z M520.51,763.6h-6.58c-4.14,0-7.06,0.46-8.74,1.36
		c-1.67,0.9-2.52,2.41-2.52,4.53c0,1.7,0.61,2.97,1.84,3.85c1.22,0.88,2.99,1.32,5.34,1.32c3.26,0,5.86-0.94,7.78-2.81
		c1.92-1.87,2.88-4.41,2.88-7.63V763.6z M483.38,729.31v38.7c0,2.13,0.05,4.19,0.15,6.18c0.11,1.99,0.26,3.89,0.47,5.69h-10.25
		l-0.48-5.62c-2.01,2.21-4.19,3.85-6.54,4.89c-2.36,1.05-5.02,1.58-7.99,1.58c-5.61,0-10.03-1.65-13.27-4.95
		c-3.24-3.31-4.87-7.82-4.87-13.53c0-5.51,1.68-9.97,5.02-13.38c3.35-3.41,7.7-5.1,13.05-5.1c2.97,0,5.62,0.49,7.92,1.46
		c2.3,0.97,4.41,2.47,6.31,4.51v-20.43H483.38z M473.07,762.66c0-3.65-0.94-6.57-2.82-8.74c-1.87-2.17-4.35-3.25-7.43-3.25
		c-3.48,0-6.19,1.05-8.13,3.16c-1.94,2.09-2.91,5.04-2.91,8.84c0,3.48,0.96,6.26,2.87,8.33c1.91,2.08,4.46,3.12,7.67,3.12
		c3.24,0,5.85-1.04,7.82-3.12C472.08,768.92,473.07,766.14,473.07,762.66z M419.95,779.87v-35.25h10.91v35.25H419.95z
		 M431.19,729.31v9.15h-11.59v-9.15H431.19z M382.33,768.84v0.3c0,1.99,0.71,3.4,2.14,4.26c1.44,0.84,3.85,1.26,7.26,1.26
		c2.85,0,5.02-0.36,6.49-1.1c1.48-0.72,2.21-1.81,2.21-3.25c0-1.7-2.74-2.95-8.23-3.77c-1.18-0.19-2.12-0.33-2.77-0.41
		c-5.51-0.92-9.53-2.28-12.04-4.11c-2.52-1.81-3.77-4.25-3.77-7.28c0-3.61,1.54-6.34,4.65-8.2c3.1-1.85,7.69-2.77,13.76-2.77
		c5.56,0,9.82,0.89,12.79,2.66c2.97,1.78,4.46,4.31,4.46,7.6v0.59l-9.46-0.04c-0.09-1.71-0.76-2.96-2.03-3.73
		c-1.25-0.78-3.25-1.17-5.99-1.17c-2.7,0-4.75,0.34-6.16,1.03c-1.4,0.69-2.11,1.67-2.11,2.98c0,1.49,2.43,2.64,7.3,3.5
		c1.18,0.2,2.12,0.38,2.81,0.51c7.13,1.3,11.72,2.76,13.8,4.39c2.07,1.61,3.1,4.04,3.1,7.27c0,3.82-1.61,6.68-4.83,8.61
		c-3.22,1.93-8.04,2.9-14.47,2.9c-6.29,0-10.98-0.92-14.09-2.77c-3.11-1.85-4.66-4.66-4.66-8.4v-0.85H382.33z M353.6,779.87h-10.59
		v-23.24c0-1.03-0.05-2.55-0.15-4.56c-0.1-2.01-0.26-4.49-0.47-7.44h10.66l0.34,5.9c1.12-2.28,2.78-3.98,5-5.09
		c2.2-1.11,5.03-1.66,8.48-1.66h1v7.51c-0.5-0.07-1-0.13-1.47-0.16c-0.48-0.04-0.95-0.05-1.4-0.05c-3.76,0-6.59,1.11-8.51,3.35
		c-1.92,2.22-2.88,5.51-2.88,9.85V779.87z M305.03,764.93v0.34c0,2.93,0.92,5.17,2.76,6.75c1.84,1.58,4.45,2.36,7.83,2.36
		c2.34,0,4.21-0.5,5.64-1.52c1.44-1.02,2.27-2.45,2.53-4.3h10.24c-0.5,3.84-2.41,6.84-5.72,8.99c-3.31,2.17-7.68,3.24-13.1,3.24
		c-6.72,0-11.96-1.58-15.72-4.75c-3.76-3.16-5.64-7.58-5.64-13.25c0-5.9,1.88-10.54,5.64-13.94c3.75-3.39,8.93-5.09,15.52-5.09
		c6.51,0,11.42,1.66,14.74,4.97c3.31,3.31,4.97,8.24,4.97,14.78v1.4H305.03z M305.03,758.76l19.17-0.04
		c-0.12-2.66-0.98-4.66-2.59-6.03c-1.61-1.36-3.94-2.04-6.98-2.04c-2.72,0-4.93,0.71-6.64,2.14
		C306.29,754.23,305.29,756.22,305.03,758.76z M261.08,779.87l-17.28-35.25h11.73l12.06,26.06l12.52-26.06h10.52l-17.07,35.25
		H261.08z M226.51,779.87v-35.25h10.91v35.25H226.51z M237.76,729.31v9.15h-11.59v-9.15H237.76z M173.85,779.87v-24.93
		c0-0.66-0.05-1.85-0.15-3.57c-0.1-1.71-0.26-3.97-0.47-6.75h10.33l0.41,6.11c1.62-2.31,3.64-4.04,6.05-5.17
		c2.41-1.15,5.25-1.72,8.55-1.72c5.12,0,9.09,1.26,11.94,3.79c2.84,2.53,4.27,6.06,4.27,10.62v21.63h-10.25v-18.41
		c0-3.57-0.77-6.25-2.32-8.04c-1.53-1.79-3.83-2.69-6.87-2.69c-3.17,0-5.81,1.04-7.9,3.14c-2.09,2.09-3.13,4.75-3.13,7.97v18.03
		H173.85z M111.31,729.31h11.21v25.03c0,3.63,0.19,6.38,0.56,8.26c0.39,1.87,1,3.39,1.84,4.55c1.19,1.63,2.79,2.87,4.79,3.72
		c2,0.85,4.3,1.29,6.87,1.29c2.61,0,4.86-0.41,6.74-1.22c1.88-0.81,3.44-2.02,4.65-3.65c0.91-1.22,1.56-2.74,1.94-4.57
		c0.37-1.84,0.56-4.63,0.56-8.38v-25.03h10.7v29.28c0,4.41-0.49,7.86-1.49,10.36c-1,2.49-2.7,4.73-5.13,6.72
		c-2.06,1.71-4.66,3.02-7.81,3.92c-3.15,0.9-6.67,1.36-10.58,1.36c-3.89,0-7.37-0.46-10.47-1.36c-3.1-0.9-5.72-2.24-7.86-3.99
		c-2.38-1.97-4.06-4.2-5.04-6.71c-0.99-2.5-1.47-5.93-1.47-10.3V729.31z"/>
</g>
</svg>
