<?xml version="1.0" encoding="utf-8"?>
<!-- Generator: Adobe Illustrator 27.1.1, SVG Export Plug-In . SVG Version: 6.00 Build 0)  -->
<svg version="1.1" id="Layer_1" xmlns="http://www.w3.org/2000/svg" xmlns:xlink="http://www.w3.org/1999/xlink" x="0px" y="0px"
	 viewBox="0 0 589 152" style="enable-background:new 0 0 589 152;" xml:space="preserve">
<style type="text/css">
	.st0{fill-rule:evenodd;clip-rule:evenodd;fill:#0B5DA6;}
	.st1{fill:#585856;}
</style>
<path class="st0" d="M53.5,84.7c-5.6,0-10.2-4.1-10.2-9.1V58.5H51v17.9c0,2.2,2,4.1,4.5,4.1c2.4,0,4.5-1.7,4.5-4.1V58.5h3.6v17.1
	C63.5,80.6,59,84.7,53.5,84.7 M31.8,74.3l-4.7-1.4c-2.8-0.9-5-3.9-5-7.1c0-4.2,3.3-7.5,7.5-7.5H39v3.3h-6.6c-1.3,0-2.4,0.9-2.4,2.4
	c0,0.8,0.5,1.9,1.6,2l4.5,1.6c3.1,0.9,4.7,4.2,4.7,7.8c0,4.5-3.6,8.3-8.2,8.3h-9.9V80h8.5c1.3,0,2.7-1.3,2.7-3
	C33.9,75.9,33.1,74.8,31.8,74.3 M75.4,74.3l-4.7-1.4c-3.1-0.9-5.2-3.9-5.2-7.1c0-4.2,3.3-7.5,7.5-7.5h9.4v3.3h-6.6
	c-1.3,0-2.4,0.9-2.4,2.4c0,0.8,0.5,1.9,1.6,2l4.5,1.6c3.1,0.9,4.9,4.2,4.9,7.8c0,4.5-3.8,8.3-8.3,8.3h-9.9V80h8.5
	c1.3,0,2.7-1.3,2.7-3C77.3,75.9,76.7,74.8,75.4,74.3"/>
<path class="st0" d="M140.2,83.7h3V103c-0.3-2-1.4-13.8-1.3-17.4C141.5,85.1,140.2,83.7,140.2,83.7 M117.6,63.2L117.6,63.2l-3.3-3.3
	c-4.2,0-18.2-1.4-22.6-2.2v24.8c22.1,2.2,33.9,2.8,46.9,2.4h0.2L117.6,63.2z M117.8,56.3h24.8v-24h-24.8
	C117.8,32.3,117.8,56.3,117.8,56.3z M98.5,57.7c1.6,0.2,16.2,1.4,17.1,1.4l22.9,23.4H168V57.7H98.5z M140.4,86.1
	c0,0-13.2,0.9-24.5-0.2c0.3,13.6,1.9,20.7,2.2,22.3h24.6C141.5,101.1,140.5,89.4,140.4,86.1"/>
<g>
	<path class="st1" d="M230.3,69.5l1.4-17.4C232,52,232.5,52,233,52c0.6,0,1,0,1.3,0.1l2.9,9c0.2,0.4,0.4,1.1,0.6,2
		c0.2,0.9,0.4,1.5,0.4,1.7h0.1c0.2-1.2,0.6-2.4,1.1-3.7l2.9-9c0.4-0.1,0.8-0.1,1.3-0.1s0.9,0,1.3,0.1l1.4,17.4
		c-0.3,0.1-0.6,0.1-1,0.1c-0.3,0-0.6,0-0.9-0.1l-0.7-10.6c0-0.8-0.1-2.4-0.2-4.8h-0.1l-4,12.6c-0.4,0.1-0.8,0.1-1,0.1
		c-0.3,0-0.6,0-0.9-0.1l-4-12.6h-0.1c0,0.4,0,1.2-0.1,2.4c0,1.2-0.1,2-0.1,2.4l-0.7,10.6c-0.3,0.1-0.6,0.1-1,0.1
		C230.9,69.7,230.6,69.6,230.3,69.5"/>
	<path class="st1" d="M250,69.6V52.1c0.2,0,0.6-0.1,0.9-0.1c0.4,0,0.7,0,1,0.1v17.4c-0.3,0.1-0.6,0.1-1,0.1S250.2,69.6,250,69.6"/>
	<path class="st1" d="M268,52.1l0.1,0.1v17.4c-0.3,0-0.7,0.1-1.2,0.1s-0.9,0-1.2-0.1L259.5,58c-0.5-1-1.1-2.1-1.7-3.5h-0.1
		c0.1,3.2,0.2,5,0.2,5.5v9.6c-0.4,0-0.7,0.1-0.9,0.1c-0.3,0-0.6,0-0.9-0.1V52.1c0.3-0.1,0.7-0.1,1.2-0.1s0.9,0,1.2,0.1l6.2,11.6
		c0.4,0.7,1,1.9,1.8,3.6h0.1c-0.1-2.2-0.2-4.1-0.2-5.8v-8.1c0-0.5,0.1-0.8,0.2-1s0.4-0.3,0.8-0.3C267.4,52.1,268,52.1,268,52.1z"/>
	<path class="st1" d="M272.3,69.6V52.1c0.2,0,0.5-0.1,0.9-0.1s0.7,0,1,0.1v17.4c-0.3,0.1-0.6,0.1-1,0.1
		C272.9,69.6,272.6,69.6,272.3,69.6"/>
	<path class="st1" d="M276.9,68c0.1-0.6,0.4-1.1,0.9-1.6c1.7,1.2,3.4,1.8,5.1,1.8c1.2,0,2.2-0.3,2.9-0.8c0.7-0.5,1-1.2,1-2.1
		c0-1.3-0.9-2.4-2.7-3.2l-3-1.3c-2.3-1-3.4-2.4-3.4-4.3c0-0.6,0.1-1.3,0.4-1.8c0.3-0.6,0.7-1.1,1.1-1.5c0.5-0.4,1.1-0.8,1.7-1
		c0.7-0.2,1.4-0.4,2.3-0.4c1.7,0,3.3,0.4,5.1,1.2c0,0.7-0.3,1.2-0.8,1.6c-0.8-0.4-1.6-0.7-2.3-0.9c-0.7-0.2-1.4-0.3-2-0.3
		c-0.5,0-1,0.1-1.5,0.2c-0.4,0.2-0.8,0.3-1.1,0.6c-0.3,0.3-0.6,0.5-0.7,0.9c-0.2,0.3-0.3,0.7-0.3,1c0,0.7,0.2,1.3,0.7,1.7
		c0.4,0.4,1,0.8,1.8,1.1l2.9,1.3c2.5,1.1,3.8,2.6,3.8,4.6c0,1.5-0.5,2.7-1.5,3.6s-2.6,1.4-4.7,1.4C280.6,69.9,278.7,69.3,276.9,68"
		/>
	<path class="st1" d="M297.6,53.8h-1.4v15.8c-0.3,0.1-0.6,0.1-1,0.1s-0.7,0-1-0.1V53.8h-1.4h-3.3c0-0.3-0.1-0.6-0.1-0.8
		c0-0.3,0-0.5,0.1-0.9h11.2c0.1,0.2,0.1,0.5,0.1,0.8c0,0.6-0.4,0.9-1.2,0.9H297.6z"/>
	<path class="st1" d="M304.8,66.9v1c0.6,0,1.1-0.1,1.6-0.1h7c0,0.4,0,0.6-0.1,0.8c-0.1,0.6-0.5,0.9-1.3,0.9h-8
		c-0.3,0-0.6-0.1-0.8-0.3c-0.2-0.2-0.3-0.5-0.3-0.9v-16l0.2-0.2h9.9c0,0.2,0,0.5,0,0.8s0,0.6-0.1,0.9h-8.1v1.6v4.5h1.5h5.3
		c0,0.3,0.1,0.6,0.1,0.8c0,0.3,0,0.5-0.1,0.8h-5.3c-0.6,0-1.2,0-1.5,0L304.8,66.9L304.8,66.9z M305.8,49.9l4.9-2.8
		c0.5,0.3,0.8,0.9,1,1.7l-5.2,2.2C306.1,50.7,305.9,50.4,305.8,49.9"/>
	<path class="st1" d="M316.5,52.1l5.2-0.1c1.8,0,3.1,0.4,4.1,1.3c1,0.9,1.5,2.1,1.5,3.7c0,1.1-0.3,2.1-0.9,3
		c-0.6,0.8-1.4,1.4-2.4,1.7c0.7,0.2,1.3,0.9,1.7,2.1l1.3,3.4c0.2,0.5,0.4,0.9,0.6,1.2c0.2,0.3,0.4,0.5,0.5,0.7
		c-0.3,0.4-0.7,0.6-1.4,0.6c-0.4,0-0.6-0.1-0.8-0.3c-0.2-0.2-0.4-0.5-0.6-1l-1.5-3.9c-0.3-0.8-0.6-1.3-1-1.7c-0.4-0.4-1-0.6-1.8-0.6
		h-2.7v7.4c-0.3,0-0.6,0.1-1,0.1s-0.7,0-0.9-0.1V52.3L316.5,52.1z M318.2,53.6v7c0.4,0,0.8,0,1.3,0s1.1,0,1.9,0
		c0.7,0,1.3-0.1,1.8-0.3c0.5-0.2,0.8-0.4,1.1-0.7c0.3-0.3,0.5-0.7,0.6-1.1s0.2-0.9,0.2-1.3c0-0.5-0.1-0.9-0.2-1.3s-0.3-0.8-0.6-1.1
		c-0.3-0.3-0.7-0.6-1.2-0.7c-0.5-0.2-1.1-0.3-1.8-0.3h-1.8C319,53.7,318.6,53.7,318.2,53.6"/>
	<path class="st1" d="M330.5,69.6V52.1c0.2,0,0.6-0.1,0.9-0.1c0.4,0,0.7,0,1,0.1v17.4c-0.3,0.1-0.6,0.1-1,0.1
		C331.1,69.6,330.8,69.6,330.5,69.6"/>
	<path class="st1" d="M338.3,68.4c-1.8-1.6-2.7-4.1-2.7-7.5c0-1.3,0.1-2.6,0.4-3.7s0.7-2.1,1.3-2.9c0.6-0.8,1.3-1.4,2.2-1.8
		c0.9-0.4,1.9-0.7,3-0.7c1.2,0,2.2,0.3,3.1,0.7c0.9,0.5,1.6,1.1,2.2,2c0.6,0.8,1,1.8,1.3,2.9s0.4,2.2,0.4,3.4c0,1.3-0.1,2.6-0.4,3.7
		s-0.7,2.1-1.3,2.9c-0.6,0.8-1.3,1.4-2.2,1.8c-0.9,0.4-1.9,0.7-3,0.7C340.7,69.9,339.4,69.4,338.3,68.4 M337.8,58.3
		c-0.1,0.4-0.1,0.8-0.1,1.3c0,0.4,0,0.9,0,1.3c0,0.8,0,1.6,0.2,2.4c0.1,0.9,0.4,1.7,0.7,2.4c0.3,0.7,0.8,1.3,1.4,1.8
		s1.5,0.7,2.5,0.7c0.7,0,1.3-0.1,1.8-0.4c0.5-0.2,0.9-0.6,1.3-0.9c0.4-0.4,0.6-0.8,0.9-1.4c0.2-0.5,0.4-1,0.5-1.6
		c0.1-0.5,0.2-1.1,0.3-1.7c0-0.5,0.1-1.1,0.1-1.5c0-0.8-0.1-1.6-0.2-2.4c-0.1-0.9-0.4-1.7-0.7-2.4c-0.3-0.7-0.8-1.3-1.5-1.8
		c-0.6-0.5-1.4-0.7-2.5-0.7c-0.8,0-1.4,0.1-2,0.4c-0.6,0.3-1,0.7-1.4,1.1c-0.3,0.5-0.6,1-0.8,1.5C338.1,57.1,338,57.7,337.8,58.3"/>
	<path class="st1" d="M366.1,67.9c-0.2,0.2-0.5,0.4-0.9,0.5c-0.3,0.2-0.7,0.3-1.1,0.4S363.3,69,363,69c-0.4,0.1-0.7,0.1-1,0.1
		s-0.9,0-1.8,0s-2.1,0-3.6-0.1l-0.1-0.2v-17l0.1-0.2c1.5,0,3.2-0.1,5.2-0.1c1.3,0,2.4,0.2,3.3,0.7s1.6,1.1,2.1,1.9
		c0.5,0.8,0.9,1.7,1.1,2.8s0.3,2.2,0.3,3.5c0,0.8,0,1.6-0.1,2.4c-0.1,0.7-0.2,1.4-0.4,2c-0.2,0.6-0.5,1.2-0.8,1.7
		C367,67,366.6,67.5,366.1,67.9 M358.4,67.6h3.4c1,0,1.8-0.2,2.4-0.6s1.1-0.9,1.5-1.5c0.3-0.6,0.6-1.3,0.8-2.1
		c0.2-0.8,0.2-1.6,0.2-2.4c0-1.1-0.1-2.2-0.2-3.1c-0.1-1-0.4-1.8-0.7-2.5c-0.4-0.7-0.9-1.2-1.6-1.6c-0.7-0.4-1.5-0.6-2.4-0.6h-3.4
		L358.4,67.6L358.4,67.6z"/>
	<path class="st1" d="M380.2,64.6h-1.8H375h-1.8l-1.5,4.6c-0.2,0.1-0.5,0.1-0.8,0.1s-0.7,0-1-0.1v-0.1l5.8-17.3
		c0.3-0.1,0.7-0.1,1.1-0.1c0.5,0,0.8,0,1.1,0.1l5.8,17.3c-0.3,0.2-0.6,0.3-1,0.3s-0.7-0.1-0.9-0.2c-0.2-0.1-0.3-0.4-0.4-0.8
		L380.2,64.6z M373.8,62.9h1.5h2.9c0,0,0.2,0,0.6,0s0.7,0,0.9,0l-1.6-4.9c-0.6-2-1.1-3.4-1.3-4.3h-0.1c-0.3,1.3-0.6,2.3-0.9,3
		L373.8,62.9z"/>
	<path class="st1" d="M310.4,93c0.1-0.5,0.2-1,0.5-1.4c0.3-0.5,0.6-0.9,0.9-1.2c1.8,1.1,3.5,1.7,5.2,1.7c0.8,0,1.5-0.2,1.9-0.6
		c0.5-0.4,0.7-0.9,0.7-1.5c0-1-0.7-1.8-2-2.3l-3-1.3c-1.2-0.5-2.1-1.1-2.7-1.9s-0.9-1.7-0.9-2.7c0-0.8,0.1-1.5,0.4-2.1
		s0.7-1.2,1.3-1.6c0.5-0.5,1.2-0.8,2-1.1c0.8-0.3,1.6-0.4,2.5-0.4c1.9,0,3.7,0.5,5.5,1.4c-0.1,1-0.4,1.9-1.2,2.6
		c-1.7-0.8-3.2-1.2-4.5-1.2c-0.8,0-1.4,0.2-1.9,0.6c-0.4,0.4-0.6,0.8-0.6,1.4c0,0.8,0.6,1.4,1.8,1.9l3,1.3c1.2,0.5,2.2,1.2,2.8,2
		c0.7,0.8,1,1.8,1,2.9c0,0.8-0.1,1.5-0.4,2.1c-0.3,0.7-0.7,1.2-1.2,1.7s-1.2,0.8-2.1,1.1c-0.8,0.3-1.8,0.4-2.9,0.4
		C314.3,94.9,312.3,94.2,310.4,93"/>
	<path class="st1" d="M333.9,90.6h-1.3H329h-1.3l-1.2,4c-0.4,0.1-0.9,0.1-1.5,0.1s-1.2-0.1-1.6-0.2l-0.1-0.2l5.7-17.2
		c0.6-0.1,1.3-0.1,2-0.1s1.4,0,1.9,0.2l5.6,17.2c-0.5,0.3-1.1,0.4-1.8,0.4s-1.2-0.1-1.5-0.4s-0.5-0.8-0.8-1.5L333.9,90.6z
		 M328.6,87.9h1.2h2.2h1.1l-0.8-2.6c-0.6-1.9-1-3.6-1.4-4.9h-0.1c-0.2,0.7-0.5,2.2-1.1,4.3L328.6,87.9z"/>
	<path class="st1" d="M353.2,77.1v11.1c0,2.1-0.6,3.8-1.7,4.9c-1.2,1.1-2.8,1.7-5,1.7c-2.1,0-3.7-0.6-4.9-1.7
		c-1.2-1.2-1.8-2.8-1.8-4.9V77.1l0.2-0.2h1.3c0.7,0,1.2,0.2,1.5,0.5s0.5,0.9,0.5,1.7v9.1c0,2.6,1.1,3.9,3.2,3.9
		c2.2,0,3.3-1.3,3.3-3.9V77.1c0.5-0.1,1-0.1,1.7-0.1C352.1,77,352.7,77,353.2,77.1 M343.6,74.3L349,71c0.3,0.2,0.6,0.6,0.9,1.1
		s0.4,1,0.5,1.5l-5.8,2.4c-0.3-0.1-0.5-0.4-0.7-0.7C343.7,74.9,343.6,74.6,343.6,74.3"/>
	<path class="st1" d="M367,93.4c-0.5,0.4-1.2,0.8-2.1,1s-1.8,0.3-2.7,0.3c-0.5,0-1.2,0-2.1,0c-1,0-2.2,0-3.7-0.1l-0.2-0.2V77.2
		l0.2-0.2c1,0,2-0.1,3-0.1s2,0,3,0c1.4,0,2.6,0.2,3.6,0.7c0.9,0.5,1.7,1.1,2.2,1.9c0.6,0.8,0.9,1.8,1.2,2.8c0.2,1.1,0.3,2.2,0.3,3.4
		c0,1.7-0.2,3.2-0.6,4.4C368.8,91.4,368.1,92.5,367,93.4 M365.6,81.7c-0.5-1.4-1.6-2-3.2-2h-1.6c-0.5,0-0.9,0-1.2,0V92
		c0.3,0,0.7,0,1.1,0s0.8,0,1.2,0c0.4,0,0.8,0,1.2-0.1c0.4-0.1,0.7-0.1,0.9-0.3c0.4-0.2,0.8-0.6,1.1-0.9c0.3-0.4,0.5-0.9,0.6-1.4
		c0.2-0.5,0.3-1.1,0.3-1.7c0.1-0.6,0.1-1.2,0.1-1.9c0-0.7-0.1-1.4-0.1-2C366,83,365.8,82.3,365.6,81.7"/>
	<path class="st1" d="M375.4,90.1v1.6h1.8h6.2c0,0.5,0,1-0.1,1.2c-0.2,1.1-0.9,1.6-2.2,1.6h-7.2c-0.6,0-1.1-0.2-1.4-0.5
		c-0.4-0.4-0.5-0.9-0.5-1.5V77.3l0.2-0.2h10.6c0.1,0.4,0.1,0.9,0.1,1.4s-0.1,1-0.3,1.5h-7.3v1.8v2.6h1.7h4.3
		c0.1,0.4,0.2,0.9,0.2,1.4s-0.1,1-0.2,1.4h-6L375.4,90.1L375.4,90.1z"/>
	<g>
		<path class="st1" d="M440.8,52.9c-0.1,0.3-0.2,0.6-0.4,0.9c-0.2,0.3-0.4,0.5-0.6,0.6c-0.6-0.5-1.4-1-2.3-1.3s-1.8-0.5-2.8-0.5
			s-2,0.3-2.8,0.8c-0.9,0.5-1.6,1.4-2.1,2.5c-0.5,1.2-0.8,2.8-0.8,4.8c0,2.6,0.5,4.6,1.5,5.9s2.5,1.9,4.5,1.9c1,0,2-0.1,2.9-0.4
			c0.9-0.2,1.6-0.5,2-0.7l1,1.7c-0.6,0.2-1.2,0.4-1.9,0.6c-0.7,0.2-1.5,0.3-2.2,0.4c-0.8,0.1-1.5,0.2-2.1,0.2
			c-1.5,0-2.8-0.3-3.8-0.8s-1.8-1.3-2.4-2.2c-0.6-0.9-1-2-1.2-3.1s-0.4-2.3-0.4-3.5c0-1.8,0.2-3.3,0.7-4.6c0.4-1.3,1-2.3,1.8-3.1
			s1.6-1.3,2.5-1.7s1.9-0.5,2.9-0.5c1.1,0,2.2,0.2,3.3,0.6C439.1,51.7,440,52.3,440.8,52.9z M439.2,60.6c0.6,0,1,0.1,1.2,0.3
			c0.2,0.2,0.4,0.6,0.4,1.1v0.4h-4.9c-0.1,0-0.2,0-0.4,0c-0.2,0-0.3-0.1-0.4-0.2s-0.2-0.3-0.2-0.6c0-0.2,0-0.3,0.1-0.5
			c0-0.2,0.1-0.3,0.1-0.4h4.1V60.6z M438.9,64c0-0.6,0-1.2,0-1.6s0.1-0.8,0.1-1.1l1.8,0.6v7.2h-2V64H438.9z"/>
	</g>
	<g>
		<path class="st1" d="M443.3,60.6c0-1.8,0.3-3.4,0.8-4.9s1.3-2.7,2.4-3.5s2.5-1.3,4.2-1.3s3.1,0.4,4.2,1.3c1.1,0.9,1.9,2.1,2.4,3.5
			c0.5,1.5,0.8,3.1,0.8,4.9s-0.3,3.4-0.8,4.9s-1.3,2.7-2.4,3.5c-1.1,0.9-2.5,1.3-4.2,1.3c-1.3,0-2.4-0.3-3.3-0.8s-1.7-1.2-2.3-2.1
			c-0.6-0.9-1.1-1.9-1.4-3.1C443.4,63.2,443.3,61.9,443.3,60.6z M445.4,60.6c0,0.9,0.1,1.8,0.2,2.8c0.2,0.9,0.4,1.8,0.8,2.6
			c0.4,0.8,0.9,1.5,1.6,1.9c0.7,0.5,1.6,0.7,2.6,0.7s1.9-0.2,2.6-0.7s1.2-1.1,1.6-1.9s0.6-1.7,0.8-2.6c0.2-0.9,0.2-1.9,0.2-2.8
			s-0.1-1.8-0.2-2.8c-0.2-0.9-0.4-1.8-0.8-2.6s-0.9-1.4-1.6-1.9s-1.6-0.7-2.6-0.7s-1.9,0.2-2.6,0.7s-1.2,1.1-1.6,1.9
			s-0.7,1.7-0.8,2.6C445.5,58.7,445.4,59.7,445.4,60.6z"/>
	</g>
	<g>
		<path class="st1" d="M471.1,51.2c0.1,0,0.2,0,0.4-0.1s0.3,0,0.5,0s0.4,0,0.5,0c0.2,0,0.3,0,0.4,0.1l0.1,0.2l-5.7,18.7
			c-0.3,0-0.5,0-0.7,0.1s-0.5,0-0.7,0c-0.4,0-0.7-0.1-0.9-0.2c-0.2-0.2-0.4-0.4-0.5-0.8L459,51.3c0.2-0.1,0.4-0.2,0.6-0.2
			c0.2-0.1,0.4-0.1,0.6-0.1s0.5,0.1,0.7,0.2s0.3,0.4,0.4,0.8l3.3,11.3c0.1,0.4,0.3,0.9,0.4,1.4c0.2,0.5,0.3,1.1,0.5,1.7
			s0.3,1.1,0.4,1.5c0,0.1,0.1,0.2,0.1,0.2h0.1L471.1,51.2z"/>
	</g>
	<g>
		<path class="st1" d="M475.2,51.3l0.2-0.2h1.7v1.6c0,0.4,0,0.7,0,0.9s0,0.5,0,0.9v12.8c0,0.2,0,0.3,0,0.5s0,0.3,0,0.5V70h-0.8
			c-0.3,0-0.6-0.1-0.8-0.4c-0.2-0.2-0.3-0.6-0.3-1L475.2,51.3L475.2,51.3z M485.9,51.2c0,0.1,0,0.3,0,0.4c0,0.1,0,0.3,0,0.4
			s0,0.3,0,0.4c0,0.2-0.1,0.3-0.1,0.5h-7.1c-0.2,0-0.4,0-0.7,0c-0.3,0-0.5,0-0.8,0s-0.6,0-0.8,0v-1.7
			C476.4,51.2,485.9,51.2,485.9,51.2z M484.5,59.6c0,0.1,0,0.3,0.1,0.5c0,0.2,0,0.3,0,0.4s0,0.2,0,0.4s0,0.3-0.1,0.5h-5.8
			c-0.2,0-0.4,0-0.7,0c-0.3,0-0.5,0-0.8,0s-0.6,0-0.8,0v-1.7c0.3,0,0.5,0,0.8,0s0.5,0,0.8,0s0.5,0,0.7,0h5.8V59.6z M486.4,68.3
			c0,0.7-0.1,1.2-0.3,1.4c-0.2,0.2-0.5,0.4-1,0.4h-8.6v-1.6c0.3,0,0.7-0.1,1.1-0.1s0.8,0,1.3,0h7.5V68.3z"/>
	</g>
	<g>
		<path class="st1" d="M501.2,56.5c0,0.8-0.1,1.6-0.4,2.3c-0.3,0.7-0.7,1.3-1.3,1.7c-0.5,0.5-1.2,0.8-1.9,1c0.4,0.1,0.8,0.4,1.1,0.8
			c0.3,0.4,0.6,0.9,0.8,1.4l1.5,3.8c0.2,0.6,0.4,1.1,0.6,1.3s0.3,0.5,0.6,0.6c-0.1,0.2-0.3,0.4-0.6,0.5c-0.3,0.1-0.5,0.2-0.8,0.2
			c-0.4,0-0.7-0.1-0.9-0.3c-0.2-0.2-0.4-0.6-0.5-1l-1.6-4.3c-0.3-0.7-0.6-1.3-1-1.8s-1.1-0.7-2-0.7H491v-1.7c0.4,0,0.9,0,1.4,0
			s1.1,0,1.6,0s1,0,1.5,0c1,0,1.8-0.2,2.4-0.6s0.9-0.9,1.2-1.4c0.2-0.6,0.3-1.2,0.3-1.7c0-0.6-0.1-1.2-0.3-1.8
			c-0.2-0.6-0.6-1-1.2-1.4s-1.3-0.6-2.4-0.6c-0.3,0-0.7,0-1.1,0s-0.9,0-1.4,0s-0.9,0-1.2,0v17.3c-0.1,0-0.3,0-0.5,0.1
			c-0.2,0-0.4,0-0.6,0s-0.3,0-0.5,0s-0.3,0-0.4-0.1V51.3l0.2-0.2c1,0,1.9,0,2.8-0.1c0.9,0,1.8,0,2.7,0c1.3,0,2.4,0.2,3.2,0.7
			c0.9,0.4,1.6,1.1,2,1.9C501,54.4,501.2,55.4,501.2,56.5z"/>
	</g>
	<g>
		<path class="st1" d="M504.8,51.2c0.2,0,0.4,0,0.6-0.1s0.4,0,0.6,0s0.4,0,0.7,0s0.4,0,0.6,0.1l-0.6,2.4h-0.2c0,0.6,0,1.2,0.1,1.8
			c0.1,0.6,0.1,1.3,0.1,2s0,1.4,0,2V70c-0.2,0-0.3,0-0.5,0.1c-0.2,0-0.3,0-0.4,0s-0.3,0-0.4,0c-0.2,0-0.3,0-0.5-0.1V51.2H504.8z
			 M508.5,57.3c-0.4-0.7-0.7-1.3-1-1.9s-0.6-1.2-0.9-1.9l-1-1.2l1.6-1.2l6.8,12.7c0.4,0.7,0.7,1.3,1,2s0.6,1.3,0.9,1.9l1,1l-1.6,1.4
			L508.5,57.3z M517.8,51.2V70c-0.2,0-0.3,0-0.5,0.1c-0.2,0-0.4,0-0.7,0s-0.5,0-0.7,0s-0.4,0-0.6-0.1l0.6-2.3h0.2
			c0-0.7-0.1-1.3-0.1-2.1c0-0.7,0-1.4-0.1-2.1s0-1.4,0-2v-9.1c0-0.4,0.1-0.8,0.2-1c0.1-0.2,0.4-0.3,0.8-0.3h0.7L517.8,51.2z"/>
	</g>
	<g>
		<path class="st1" d="M521,60.6c0-1.8,0.3-3.4,0.8-4.9s1.3-2.7,2.4-3.5s2.5-1.3,4.2-1.3s3.1,0.4,4.2,1.3c1.1,0.9,1.9,2.1,2.4,3.5
			c0.5,1.5,0.8,3.1,0.8,4.9s-0.3,3.4-0.8,4.9s-1.3,2.7-2.4,3.5c-1.1,0.9-2.5,1.3-4.2,1.3c-1.3,0-2.4-0.3-3.3-0.8
			c-0.9-0.5-1.7-1.2-2.3-2.1s-1.1-1.9-1.4-3.1C521.2,63.2,521,61.9,521,60.6z M523.1,60.6c0,0.9,0.1,1.8,0.2,2.8
			c0.2,0.9,0.4,1.8,0.8,2.6c0.4,0.8,0.9,1.5,1.6,1.9c0.7,0.5,1.6,0.7,2.6,0.7s1.9-0.2,2.6-0.7s1.2-1.1,1.6-1.9s0.6-1.7,0.8-2.6
			s0.2-1.9,0.2-2.8s-0.1-1.8-0.2-2.8c-0.2-0.9-0.4-1.8-0.8-2.6s-0.9-1.4-1.6-1.9s-1.6-0.7-2.6-0.7s-1.9,0.2-2.6,0.7
			c-0.7,0.5-1.2,1.1-1.6,1.9c-0.4,0.8-0.7,1.7-0.8,2.6S523.1,59.7,523.1,60.6z"/>
	</g>
	<g>
		<path class="st1" d="M436.8,95.6c-0.3,0.1-0.6,0.1-0.9,0.1s-0.6,0-0.9,0s-0.5,0-0.9,0s-0.6,0-0.9-0.1V76.9l0.2-0.2h3.3v1.4
			c0,0.7,0,1.5,0,2.2c0,0.8,0,1.5,0,2.2L436.8,95.6L436.8,95.6z M444.8,76.8c0.1,0.2,0.1,0.4,0.1,0.7c0,0.3,0,0.5,0,0.7
			c0,0.6-0.2,1-0.5,1.3s-0.8,0.4-1.5,0.4h-3.8c-0.7,0-1.4,0-2,0s-1.2,0-1.8,0V77h9.5V76.8z M443.2,84.7c0.1,0.2,0.1,0.5,0.1,0.7
			s0,0.5,0,0.7s0,0.4,0,0.7s-0.1,0.5-0.1,0.8h-5.5c-0.4,0-0.7,0-1.2,0c-0.4,0-0.8,0-1.1,0v-2.8c0.3,0,0.7,0,1.1,0s0.8,0,1.2,0
			L443.2,84.7L443.2,84.7z"/>
	</g>
	<g>
		<path class="st1" d="M446.7,76.9l0.2-0.2h3.3v2.9c0,0.4,0,0.7,0,1s0,0.6,0,1v9.5c0,0.3,0,0.5,0,0.8c0,0.2,0,0.5,0,0.8v2.9h-1.4
			c-0.6,0-1.1-0.2-1.5-0.6s-0.5-0.9-0.5-1.5V76.9H446.7z M458.3,76.8c0.1,0.3,0.1,0.5,0.1,0.7s0,0.5,0,0.7s0,0.4-0.1,0.7
			c0,0.3-0.1,0.6-0.2,0.8H452c-0.2,0-0.5,0-0.9,0s-0.7,0-1.1,0s-0.7,0-1,0v-2.9C449,76.8,458.3,76.8,458.3,76.8z M456.8,84.7
			c0.1,0.2,0.1,0.5,0.1,0.7c0,0.3,0,0.5,0,0.7s0,0.4,0,0.7c0,0.3-0.1,0.5-0.1,0.7H452c-0.2,0-0.5,0-0.9,0s-0.7,0-1.1,0s-0.7,0-1,0
			v-2.8c0.3,0,0.6,0,1,0s0.8,0,1.1,0c0.4,0,0.7,0,0.9,0L456.8,84.7L456.8,84.7z M458.9,92.7c0,1-0.2,1.8-0.5,2.2s-0.9,0.7-1.9,0.7
			H449v-2.8c0.5,0,1-0.1,1.5-0.1s1,0,1.6,0C452.1,92.7,458.9,92.7,458.9,92.7z"/>
		<path class="st1" d="M475.9,86.2c0,1.1-0.1,2.1-0.2,3.1s-0.4,1.9-0.9,2.8c-0.4,0.9-1.1,1.6-1.9,2.3c-0.4,0.3-0.9,0.6-1.5,0.8
			c-0.6,0.2-1.2,0.4-1.8,0.4s-1.2,0.1-1.6,0.1c-0.8,0-1.5,0-2.2,0s-1.4,0-2,0s-1.4,0-2.2-0.1l-0.2-0.2V76.9l0.2-0.2
			c0.8,0,1.5-0.1,2.2-0.1s1.4,0,2,0c0.7,0,1.4,0,2.2,0c0.5,0,1,0,1.7,0.1s1.2,0.2,1.8,0.4c0.6,0.2,1.1,0.5,1.5,0.8
			c0.8,0.7,1.5,1.5,1.9,2.3s0.7,1.8,0.9,2.8C475.8,84.1,475.9,85.1,475.9,86.2z M472.3,86.2c0-0.8,0-1.6-0.1-2.4s-0.3-1.5-0.6-2.2
			s-0.7-1.2-1.3-1.6c-0.6-0.4-1.3-0.6-2.3-0.6c-0.5,0-1,0-1.5,0s-1,0-1.6,0V93c0.6,0,1.1,0,1.6,0s1,0,1.5,0c0.9,0,1.7-0.2,2.3-0.6
			c0.6-0.4,1-0.9,1.3-1.6s0.5-1.4,0.6-2.2C472.2,87.8,472.3,87,472.3,86.2z"/>
		<path class="st1" d="M478.4,76.9l0.2-0.2h3.3v2.9c0,0.4,0,0.7,0,1s0,0.6,0,1v9.5c0,0.3,0,0.5,0,0.8c0,0.2,0,0.5,0,0.8v2.9h-1.4
			c-0.6,0-1.1-0.2-1.5-0.6s-0.5-0.9-0.5-1.5V76.9H478.4z M490,76.8c0.1,0.3,0.1,0.5,0.1,0.7s0,0.5,0,0.7s0,0.4-0.1,0.7
			c0,0.3-0.1,0.6-0.2,0.8h-6.2c-0.2,0-0.5,0-0.9,0s-0.7,0-1.1,0s-0.7,0-1,0v-2.9C480.6,76.8,490,76.8,490,76.8z M488.5,84.7
			c0.1,0.2,0.1,0.5,0.1,0.7c0,0.3,0,0.5,0,0.7s0,0.4,0,0.7c0,0.3-0.1,0.5-0.1,0.7h-4.8c-0.2,0-0.5,0-0.9,0s-0.7,0-1.1,0s-0.7,0-1,0
			v-2.8c0.3,0,0.6,0,1,0s0.8,0,1.1,0c0.4,0,0.7,0,0.9,0L488.5,84.7L488.5,84.7z M490.6,92.7c0,1-0.2,1.8-0.5,2.2s-0.9,0.7-1.9,0.7
			h-7.6v-2.8c0.5,0,1-0.1,1.5-0.1s1,0,1.6,0C483.7,92.7,490.6,92.7,490.6,92.7z"/>
		<path class="st1" d="M505.9,82.4c0,0.9-0.2,1.6-0.5,2.3s-0.7,1.3-1.3,1.7s-1.1,0.8-1.7,1c0.5,0.2,0.9,0.5,1.2,0.9
			c0.3,0.4,0.6,0.9,0.8,1.5l1.1,2.9c0.2,0.5,0.4,0.9,0.6,1.2c0.2,0.3,0.4,0.6,0.7,0.8c-0.2,0.3-0.6,0.6-1,0.8s-0.9,0.3-1.3,0.3
			c-0.7,0-1.1-0.2-1.4-0.5s-0.6-0.9-0.8-1.6l-1.2-3.4c-0.2-0.6-0.5-1.1-0.8-1.4s-1-0.6-1.8-0.6h-3.3v-2.7c0.4,0,0.8,0,1.4,0
			s1,0,1.5,0s0.9,0,1.2,0c0.8,0,1.5-0.1,1.9-0.4s0.7-0.7,0.9-1.2c0.2-0.5,0.2-1,0.2-1.5s-0.1-1-0.2-1.5c-0.2-0.5-0.5-0.8-0.9-1.1
			c-0.4-0.3-1.1-0.4-1.9-0.4c-0.2,0-0.5,0-0.8,0s-0.6,0-0.9,0s-0.6,0-0.9,0v16.3c-0.3,0.1-0.6,0.1-0.9,0.1s-0.6,0-0.9,0
			c-0.2,0-0.5,0-0.8,0s-0.6,0-0.9-0.1V76.9l0.2-0.2c1.1,0,2.2-0.1,3.2-0.1s2,0,3,0c1.3,0,2.4,0.2,3.4,0.6s1.7,1.1,2.3,1.9
			S505.9,81.1,505.9,82.4z"/>
		<path class="st1" d="M513,76.8c0.3,0,0.6-0.1,1-0.1s0.7,0,1,0s0.6,0,1,0s0.7,0.1,1,0.1l6.1,18.6c-0.2,0.1-0.6,0.2-0.9,0.3
			c-0.4,0.1-0.7,0.1-1.1,0.1c-0.6,0-1-0.1-1.3-0.4s-0.6-0.8-0.8-1.5l-2.6-8.6c-0.2-0.8-0.5-1.7-0.8-2.6s-0.5-1.8-0.7-2.6h-0.2
			c-0.1,0.7-0.3,1.4-0.6,2.3s-0.4,1.6-0.6,2.2l-3.4,11c-0.2,0.1-0.4,0.1-0.7,0.1s-0.5,0-0.8,0s-0.6,0-0.9-0.1
			c-0.3,0-0.6-0.1-0.8-0.2l-0.1-0.2L513,76.8z M512.9,91.3c-0.1,0-0.3,0-0.5,0s-0.5,0-0.7,0s-0.4,0-0.5,0h-1.7l1.1-2.8h1.5
			c0.1,0,0.3,0,0.5,0s0.4,0,0.6,0c0.2,0,0.4,0,0.5,0h2.5c0.1,0,0.3,0,0.5,0s0.4,0,0.6,0s0.4,0,0.5,0h1.6l0.9,2.8h-1.7
			c-0.1,0-0.3,0-0.5,0s-0.5,0-0.7,0s-0.4,0-0.5,0H512.9z"/>
	</g>
	<g>
		<path class="st1" d="M528.3,95.7h-1.5c-0.6,0-1.1-0.2-1.5-0.6s-0.6-0.9-0.6-1.6V76.8l0.2-0.2h1.3c0.7,0,1.2,0.2,1.5,0.5
			c0.3,0.4,0.5,0.9,0.5,1.7L528.3,95.7L528.3,95.7z M536,92.6c0,1.2-0.2,2-0.5,2.4c-0.4,0.4-1,0.7-1.8,0.7h-6.8l-1.8-2.6
			c1-0.2,2-0.3,3-0.4s2-0.1,2.8-0.1H536z"/>
	</g>
</g>
</svg>
